M48
METRIC,LZ,000.000
;FILE_FORMAT=3:3
;TYPE=PLATED
;Layer: Drill PTH
;EasyEDA v6.4.25, 2022-02-03T13:57:38+11:00
;a67cddfb3fce44daa9051d46cbbcc19f,10
;Gerber Generator version 0.2
;Holesize 1 = 0.305 mm
T01C0.305
;Holesize 2 = 0.915 mm
T02C0.915
;Holesize 3 = 1.390 mm
T03C1.390
%
G05
G90
T01
X011500Y021000
X011500Y017500
X011500Y014000
X011500Y010000
X011500Y006500
X009000Y010000
X009000Y014000
X009000Y017500
X007000Y025500
X016500Y025500
T02
X017780Y036830
X017780Y034290
X017780Y031750
X017780Y029210
X017780Y026670
X017780Y024130
X017780Y021590
X017780Y019050
X017780Y016510
X017780Y013970
X017780Y011430
X017780Y008890
X017780Y006350
X017780Y003810
X015240Y034290
X015240Y029210
X015240Y026670
X015240Y024130
X015240Y003810
X012700Y003810
X010160Y003810
X007620Y003810
X005080Y003810
X002540Y003937
X002540Y006350
X002540Y008890
X002540Y011430
X002540Y013970
X002540Y016510
X002540Y019050
X002540Y021590
X002540Y024130
X002540Y026670
X002540Y029210
X002540Y031750
X002540Y034290
X002540Y036830
T03
X002540Y043180
X017780Y043180
M30
