G04 Layer: BottomSilkLayer*
G04 EasyEDA v6.4.25, 2022-02-03T13:57:38+11:00*
G04 a67cddfb3fce44daa9051d46cbbcc19f,10*
G04 Gerber Generator version 0.2*
G04 Scale: 100 percent, Rotated: No, Reflected: No *
G04 Dimensions in millimeters *
G04 leading zeros omitted , absolute positions ,4 integer and 5 decimal *
%FSLAX45Y45*%
%MOMM*%

%ADD18C,0.2032*%

%LPD*%
D18*
X1385343Y4435048D02*
G01*
X1385343Y4241086D01*
X1449999Y4435048D02*
G01*
X1320690Y4435048D01*
X1259730Y4314977D02*
G01*
X1148895Y4314977D01*
X1148895Y4333448D01*
X1158130Y4351921D01*
X1167366Y4361157D01*
X1185839Y4370395D01*
X1213548Y4370395D01*
X1232021Y4361157D01*
X1250495Y4342686D01*
X1259730Y4314977D01*
X1259730Y4296503D01*
X1250495Y4268795D01*
X1232021Y4250321D01*
X1213548Y4241086D01*
X1185839Y4241086D01*
X1167366Y4250321D01*
X1148895Y4268795D01*
X1087935Y4314977D02*
G01*
X977097Y4314977D01*
X977097Y4333448D01*
X986335Y4351921D01*
X995570Y4361157D01*
X1014044Y4370395D01*
X1041753Y4370395D01*
X1060223Y4361157D01*
X1078697Y4342686D01*
X1087935Y4314977D01*
X1087935Y4296503D01*
X1078697Y4268795D01*
X1060223Y4250321D01*
X1041753Y4241086D01*
X1014044Y4241086D01*
X995570Y4250321D01*
X977097Y4268795D01*
X916137Y4370395D02*
G01*
X916137Y4241086D01*
X916137Y4333448D02*
G01*
X888428Y4361157D01*
X869955Y4370395D01*
X842246Y4370395D01*
X823775Y4361157D01*
X814537Y4333448D01*
X814537Y4241086D01*
X651977Y4342686D02*
G01*
X661215Y4361157D01*
X688924Y4370395D01*
X716633Y4370395D01*
X744341Y4361157D01*
X753577Y4342686D01*
X744341Y4324212D01*
X725868Y4314977D01*
X679686Y4305739D01*
X661215Y4296503D01*
X651977Y4278030D01*
X651977Y4268795D01*
X661215Y4250321D01*
X688924Y4241086D01*
X716633Y4241086D01*
X744341Y4250321D01*
X753577Y4268795D01*
X581781Y4370395D02*
G01*
X526364Y4241086D01*
X470943Y4370395D02*
G01*
X526364Y4241086D01*
X544835Y4204139D01*
X563308Y4185665D01*
X581781Y4176430D01*
X591017Y4176430D01*
X1365343Y4175048D02*
G01*
X1365343Y3981086D01*
X1429999Y4175048D02*
G01*
X1300690Y4175048D01*
X1239730Y4054977D02*
G01*
X1128895Y4054977D01*
X1128895Y4073448D01*
X1138130Y4091922D01*
X1147366Y4101157D01*
X1165839Y4110395D01*
X1193548Y4110395D01*
X1212021Y4101157D01*
X1230495Y4082686D01*
X1239730Y4054977D01*
X1239730Y4036504D01*
X1230495Y4008795D01*
X1212021Y3990322D01*
X1193548Y3981086D01*
X1165839Y3981086D01*
X1147366Y3990322D01*
X1128895Y4008795D01*
X966335Y4082686D02*
G01*
X975570Y4101157D01*
X1003279Y4110395D01*
X1030988Y4110395D01*
X1058697Y4101157D01*
X1067935Y4082686D01*
X1058697Y4064213D01*
X1040223Y4054977D01*
X994044Y4045739D01*
X975570Y4036504D01*
X966335Y4018031D01*
X966335Y4008795D01*
X975570Y3990322D01*
X1003279Y3981086D01*
X1030988Y3981086D01*
X1058697Y3990322D01*
X1067935Y4008795D01*
X877663Y4175048D02*
G01*
X877663Y4018031D01*
X868428Y3990322D01*
X849955Y3981086D01*
X831484Y3981086D01*
X905375Y4110395D02*
G01*
X840719Y4110395D01*
X770524Y4054977D02*
G01*
X659686Y4054977D01*
X659686Y4073448D01*
X668924Y4091922D01*
X678159Y4101157D01*
X696633Y4110395D01*
X724341Y4110395D01*
X742815Y4101157D01*
X761286Y4082686D01*
X770524Y4054977D01*
X770524Y4036504D01*
X761286Y4008795D01*
X742815Y3990322D01*
X724341Y3981086D01*
X696633Y3981086D01*
X678159Y3990322D01*
X659686Y4008795D01*
X598726Y4110395D02*
G01*
X598726Y3981086D01*
X598726Y4054977D02*
G01*
X589490Y4082686D01*
X571017Y4101157D01*
X552543Y4110395D01*
X524835Y4110395D01*
X1359999Y3890911D02*
G01*
X1323637Y3795455D01*
X1287271Y3890911D02*
G01*
X1323637Y3795455D01*
X1257272Y3831821D02*
G01*
X1202728Y3831821D01*
X1202728Y3840911D01*
X1207272Y3850002D01*
X1211818Y3854549D01*
X1220909Y3859093D01*
X1234544Y3859093D01*
X1243637Y3854549D01*
X1252728Y3845455D01*
X1257272Y3831821D01*
X1257272Y3822730D01*
X1252728Y3809093D01*
X1243637Y3800002D01*
X1234544Y3795455D01*
X1220909Y3795455D01*
X1211818Y3800002D01*
X1202728Y3809093D01*
X1172728Y3859093D02*
G01*
X1172728Y3795455D01*
X1172728Y3831821D02*
G01*
X1168181Y3845455D01*
X1159090Y3854549D01*
X1150000Y3859093D01*
X1136362Y3859093D01*
X1056363Y3845455D02*
G01*
X1060909Y3854549D01*
X1074544Y3859093D01*
X1088181Y3859093D01*
X1101818Y3854549D01*
X1106363Y3845455D01*
X1101818Y3836365D01*
X1092728Y3831821D01*
X1070000Y3827274D01*
X1060909Y3822730D01*
X1056363Y3813639D01*
X1056363Y3809093D01*
X1060909Y3800002D01*
X1074544Y3795455D01*
X1088181Y3795455D01*
X1101818Y3800002D01*
X1106363Y3809093D01*
X1026363Y3890911D02*
G01*
X1021819Y3886365D01*
X1017272Y3890911D01*
X1021819Y3895458D01*
X1026363Y3890911D01*
X1021819Y3859093D02*
G01*
X1021819Y3795455D01*
X964544Y3859093D02*
G01*
X973635Y3854549D01*
X982726Y3845455D01*
X987272Y3831821D01*
X987272Y3822730D01*
X982726Y3809093D01*
X973635Y3800002D01*
X964544Y3795455D01*
X950909Y3795455D01*
X941816Y3800002D01*
X932726Y3809093D01*
X928182Y3822730D01*
X928182Y3831821D01*
X932726Y3845455D01*
X941816Y3854549D01*
X950909Y3859093D01*
X964544Y3859093D01*
X898182Y3859093D02*
G01*
X898182Y3795455D01*
X898182Y3840911D02*
G01*
X884544Y3854549D01*
X875454Y3859093D01*
X861816Y3859093D01*
X852726Y3854549D01*
X848182Y3840911D01*
X848182Y3795455D01*
X748182Y3872730D02*
G01*
X739091Y3877274D01*
X725454Y3890911D01*
X725454Y3795455D01*
X690907Y3818183D02*
G01*
X695454Y3813639D01*
X690907Y3809093D01*
X686363Y3813639D01*
X690907Y3818183D01*
X629091Y3890911D02*
G01*
X642726Y3886365D01*
X651817Y3872730D01*
X656363Y3850002D01*
X656363Y3836365D01*
X651817Y3813639D01*
X642726Y3800002D01*
X629091Y3795455D01*
X619998Y3795455D01*
X606364Y3800002D01*
X597273Y3813639D01*
X592726Y3836365D01*
X592726Y3850002D01*
X597273Y3872730D01*
X606364Y3886365D01*
X619998Y3890911D01*
X629091Y3890911D01*
M02*
