G04 Layer: TopSilkLayer*
G04 EasyEDA v6.4.25, 2022-02-03T13:57:38+11:00*
G04 a67cddfb3fce44daa9051d46cbbcc19f,10*
G04 Gerber Generator version 0.2*
G04 Scale: 100 percent, Rotated: No, Reflected: No *
G04 Dimensions in millimeters *
G04 leading zeros omitted , absolute positions ,4 integer and 5 decimal *
%FSLAX45Y45*%
%MOMM*%

%ADD10C,0.2540*%
%ADD17C,0.1524*%
%ADD18C,0.2032*%

%LPD*%
D18*
X547751Y4001383D02*
G01*
X547751Y3858127D01*
X499998Y4001383D02*
G01*
X595503Y4001383D01*
X640461Y3912737D02*
G01*
X722248Y3912737D01*
X722248Y3926453D01*
X715390Y3939915D01*
X708532Y3946773D01*
X695070Y3953631D01*
X674496Y3953631D01*
X661035Y3946773D01*
X647319Y3933057D01*
X640461Y3912737D01*
X640461Y3899021D01*
X647319Y3878701D01*
X661035Y3864985D01*
X674496Y3858127D01*
X695070Y3858127D01*
X708532Y3864985D01*
X722248Y3878701D01*
X767206Y3912737D02*
G01*
X848995Y3912737D01*
X848995Y3926453D01*
X842390Y3939915D01*
X835532Y3946773D01*
X821817Y3953631D01*
X801243Y3953631D01*
X787780Y3946773D01*
X774064Y3933057D01*
X767206Y3912737D01*
X767206Y3899021D01*
X774064Y3878701D01*
X787780Y3864985D01*
X801243Y3858127D01*
X821817Y3858127D01*
X835532Y3864985D01*
X848995Y3878701D01*
X894206Y3953631D02*
G01*
X894206Y3858127D01*
X894206Y3926453D02*
G01*
X914527Y3946773D01*
X928243Y3953631D01*
X948562Y3953631D01*
X962279Y3946773D01*
X969137Y3926453D01*
X969137Y3858127D01*
X1089025Y3933057D02*
G01*
X1082167Y3946773D01*
X1061846Y3953631D01*
X1041272Y3953631D01*
X1020953Y3946773D01*
X1014095Y3933057D01*
X1020953Y3919595D01*
X1034669Y3912737D01*
X1068704Y3905879D01*
X1082167Y3899021D01*
X1089025Y3885559D01*
X1089025Y3878701D01*
X1082167Y3864985D01*
X1061846Y3858127D01*
X1041272Y3858127D01*
X1020953Y3864985D01*
X1014095Y3878701D01*
X1140840Y3953631D02*
G01*
X1181735Y3858127D01*
X1222629Y3953631D02*
G01*
X1181735Y3858127D01*
X1168272Y3830949D01*
X1154556Y3817233D01*
X1140840Y3810375D01*
X1133982Y3810375D01*
X1267840Y4001383D02*
G01*
X1267840Y3858127D01*
X1267840Y3858127D02*
G01*
X1349629Y3858127D01*
X1496695Y3967347D02*
G01*
X1490090Y3980809D01*
X1476375Y3994525D01*
X1462659Y4001383D01*
X1435480Y4001383D01*
X1421764Y3994525D01*
X1408303Y3980809D01*
X1401445Y3967347D01*
X1394587Y3946773D01*
X1394587Y3912737D01*
X1401445Y3892163D01*
X1408303Y3878701D01*
X1421764Y3864985D01*
X1435480Y3858127D01*
X1462659Y3858127D01*
X1476375Y3864985D01*
X1490090Y3878701D01*
X1496695Y3892163D01*
D17*
X650001Y3415317D02*
G01*
X650001Y3306351D01*
X650001Y3415317D02*
G01*
X696737Y3415317D01*
X712231Y3410237D01*
X717565Y3404903D01*
X722645Y3394489D01*
X722645Y3384075D01*
X717565Y3373661D01*
X712231Y3368581D01*
X696737Y3363501D01*
X650001Y3363501D01*
X686323Y3363501D02*
G01*
X722645Y3306351D01*
X756935Y3394489D02*
G01*
X767349Y3399823D01*
X783097Y3415317D01*
X783097Y3306351D01*
X650001Y2915315D02*
G01*
X650001Y2806349D01*
X650001Y2915315D02*
G01*
X696737Y2915315D01*
X712231Y2910235D01*
X717565Y2904901D01*
X722645Y2894487D01*
X722645Y2884073D01*
X717565Y2873659D01*
X712231Y2868579D01*
X696737Y2863499D01*
X650001Y2863499D01*
X686323Y2863499D02*
G01*
X722645Y2806349D01*
X762269Y2889407D02*
G01*
X762269Y2894487D01*
X767349Y2904901D01*
X772683Y2910235D01*
X783097Y2915315D01*
X803671Y2915315D01*
X814085Y2910235D01*
X819419Y2904901D01*
X824499Y2894487D01*
X824499Y2884073D01*
X819419Y2873659D01*
X809005Y2858165D01*
X756935Y2806349D01*
X829833Y2806349D01*
X650001Y2415316D02*
G01*
X650001Y2306350D01*
X650001Y2415316D02*
G01*
X696737Y2415316D01*
X712231Y2410236D01*
X717565Y2404902D01*
X722645Y2394488D01*
X722645Y2384074D01*
X717565Y2373660D01*
X712231Y2368580D01*
X696737Y2363500D01*
X650001Y2363500D01*
X686323Y2363500D02*
G01*
X722645Y2306350D01*
X767349Y2415316D02*
G01*
X824499Y2415316D01*
X793511Y2373660D01*
X809005Y2373660D01*
X819419Y2368580D01*
X824499Y2363500D01*
X829833Y2347752D01*
X829833Y2337338D01*
X824499Y2321844D01*
X814085Y2311430D01*
X798591Y2306350D01*
X783097Y2306350D01*
X767349Y2311430D01*
X762269Y2316510D01*
X756935Y2326924D01*
X650001Y1915314D02*
G01*
X650001Y1806348D01*
X650001Y1915314D02*
G01*
X696737Y1915314D01*
X712231Y1910234D01*
X717565Y1904900D01*
X722645Y1894486D01*
X722645Y1884072D01*
X717565Y1873658D01*
X712231Y1868578D01*
X696737Y1863498D01*
X650001Y1863498D01*
X686323Y1863498D02*
G01*
X722645Y1806348D01*
X809005Y1915314D02*
G01*
X756935Y1842670D01*
X834913Y1842670D01*
X809005Y1915314D02*
G01*
X809005Y1806348D01*
X650001Y1415315D02*
G01*
X650001Y1306349D01*
X650001Y1415315D02*
G01*
X696737Y1415315D01*
X712231Y1410235D01*
X717565Y1404901D01*
X722645Y1394487D01*
X722645Y1384073D01*
X717565Y1373659D01*
X712231Y1368579D01*
X696737Y1363499D01*
X650001Y1363499D01*
X686323Y1363499D02*
G01*
X722645Y1306349D01*
X819419Y1415315D02*
G01*
X767349Y1415315D01*
X762269Y1368579D01*
X767349Y1373659D01*
X783097Y1378993D01*
X798591Y1378993D01*
X814085Y1373659D01*
X824499Y1363499D01*
X829833Y1347751D01*
X829833Y1337337D01*
X824499Y1321843D01*
X814085Y1311429D01*
X798591Y1306349D01*
X783097Y1306349D01*
X767349Y1311429D01*
X762269Y1316509D01*
X756935Y1326923D01*
X650001Y1065316D02*
G01*
X650001Y956350D01*
X650001Y1065316D02*
G01*
X696737Y1065316D01*
X712231Y1060236D01*
X717565Y1054902D01*
X722645Y1044488D01*
X722645Y1034074D01*
X717565Y1023660D01*
X712231Y1018580D01*
X696737Y1013500D01*
X650001Y1013500D01*
X686323Y1013500D02*
G01*
X722645Y956350D01*
X819419Y1049822D02*
G01*
X814085Y1060236D01*
X798591Y1065316D01*
X788177Y1065316D01*
X772683Y1060236D01*
X762269Y1044488D01*
X756935Y1018580D01*
X756935Y992672D01*
X762269Y971844D01*
X772683Y961430D01*
X788177Y956350D01*
X793511Y956350D01*
X809005Y961430D01*
X819419Y971844D01*
X824499Y987338D01*
X824499Y992672D01*
X819419Y1008166D01*
X809005Y1018580D01*
X793511Y1023660D01*
X788177Y1023660D01*
X772683Y1018580D01*
X762269Y1008166D01*
X756935Y992672D01*
X815002Y730316D02*
G01*
X815002Y621350D01*
X815002Y730316D02*
G01*
X861738Y730316D01*
X877232Y725236D01*
X882566Y719902D01*
X887646Y709488D01*
X887646Y699074D01*
X882566Y688660D01*
X877232Y683580D01*
X861738Y678500D01*
X815002Y678500D01*
X851324Y678500D02*
G01*
X887646Y621350D01*
X994834Y730316D02*
G01*
X942764Y621350D01*
X921936Y730316D02*
G01*
X994834Y730316D01*
X1200000Y865317D02*
G01*
X1200000Y756351D01*
X1200000Y865317D02*
G01*
X1246736Y865317D01*
X1262230Y860237D01*
X1267564Y854903D01*
X1272644Y844489D01*
X1272644Y834075D01*
X1267564Y823661D01*
X1262230Y818581D01*
X1246736Y813501D01*
X1200000Y813501D01*
X1236322Y813501D02*
G01*
X1272644Y756351D01*
X1333096Y865317D02*
G01*
X1317348Y860237D01*
X1312268Y849823D01*
X1312268Y839409D01*
X1317348Y828995D01*
X1327762Y823661D01*
X1348590Y818581D01*
X1364084Y813501D01*
X1374498Y803087D01*
X1379832Y792673D01*
X1379832Y776925D01*
X1374498Y766511D01*
X1369418Y761431D01*
X1353670Y756351D01*
X1333096Y756351D01*
X1317348Y761431D01*
X1312268Y766511D01*
X1306934Y776925D01*
X1306934Y792673D01*
X1312268Y803087D01*
X1322682Y813501D01*
X1338176Y818581D01*
X1359004Y823661D01*
X1369418Y828995D01*
X1374498Y839409D01*
X1374498Y849823D01*
X1369418Y860237D01*
X1353670Y865317D01*
X1333096Y865317D01*
X1200000Y1265316D02*
G01*
X1200000Y1156350D01*
X1200000Y1265316D02*
G01*
X1246736Y1265316D01*
X1262230Y1260236D01*
X1267564Y1254902D01*
X1272644Y1244488D01*
X1272644Y1234074D01*
X1267564Y1223660D01*
X1262230Y1218580D01*
X1246736Y1213500D01*
X1200000Y1213500D01*
X1236322Y1213500D02*
G01*
X1272644Y1156350D01*
X1374498Y1228994D02*
G01*
X1369418Y1213500D01*
X1359004Y1203086D01*
X1343510Y1197752D01*
X1338176Y1197752D01*
X1322682Y1203086D01*
X1312268Y1213500D01*
X1306934Y1228994D01*
X1306934Y1234074D01*
X1312268Y1249822D01*
X1322682Y1260236D01*
X1338176Y1265316D01*
X1343510Y1265316D01*
X1359004Y1260236D01*
X1369418Y1249822D01*
X1374498Y1228994D01*
X1374498Y1203086D01*
X1369418Y1176924D01*
X1359004Y1161430D01*
X1343510Y1156350D01*
X1333096Y1156350D01*
X1317348Y1161430D01*
X1312268Y1171844D01*
X1150000Y1615315D02*
G01*
X1150000Y1506349D01*
X1150000Y1615315D02*
G01*
X1196736Y1615315D01*
X1212230Y1610235D01*
X1217564Y1604901D01*
X1222644Y1594487D01*
X1222644Y1584073D01*
X1217564Y1573659D01*
X1212230Y1568579D01*
X1196736Y1563499D01*
X1150000Y1563499D01*
X1186322Y1563499D02*
G01*
X1222644Y1506349D01*
X1256934Y1594487D02*
G01*
X1267348Y1599821D01*
X1283096Y1615315D01*
X1283096Y1506349D01*
X1348374Y1615315D02*
G01*
X1332880Y1610235D01*
X1322466Y1594487D01*
X1317386Y1568579D01*
X1317386Y1553085D01*
X1322466Y1526923D01*
X1332880Y1511429D01*
X1348374Y1506349D01*
X1358788Y1506349D01*
X1374536Y1511429D01*
X1384950Y1526923D01*
X1390030Y1553085D01*
X1390030Y1568579D01*
X1384950Y1594487D01*
X1374536Y1610235D01*
X1358788Y1615315D01*
X1348374Y1615315D01*
X1200000Y2015317D02*
G01*
X1200000Y1906351D01*
X1200000Y2015317D02*
G01*
X1246736Y2015317D01*
X1262230Y2010237D01*
X1267564Y2004903D01*
X1272644Y1994489D01*
X1272644Y1984075D01*
X1267564Y1973661D01*
X1262230Y1968581D01*
X1246736Y1963501D01*
X1200000Y1963501D01*
X1236322Y1963501D02*
G01*
X1272644Y1906351D01*
X1306934Y1994489D02*
G01*
X1317348Y1999823D01*
X1333096Y2015317D01*
X1333096Y1906351D01*
X1367386Y1994489D02*
G01*
X1377800Y1999823D01*
X1393294Y2015317D01*
X1393294Y1906351D01*
X910000Y2825318D02*
G01*
X910000Y2716352D01*
X910000Y2825318D02*
G01*
X956736Y2825318D01*
X972230Y2820238D01*
X977564Y2814904D01*
X982644Y2804490D01*
X982644Y2794076D01*
X977564Y2783662D01*
X972230Y2778582D01*
X956736Y2773502D01*
X910000Y2773502D01*
X946322Y2773502D02*
G01*
X982644Y2716352D01*
X1016934Y2804490D02*
G01*
X1027348Y2809824D01*
X1043096Y2825318D01*
X1043096Y2716352D01*
X1082466Y2799410D02*
G01*
X1082466Y2804490D01*
X1087800Y2814904D01*
X1092880Y2820238D01*
X1103294Y2825318D01*
X1124122Y2825318D01*
X1134536Y2820238D01*
X1139616Y2814904D01*
X1144950Y2804490D01*
X1144950Y2794076D01*
X1139616Y2783662D01*
X1129202Y2768168D01*
X1077386Y2716352D01*
X1150030Y2716352D01*
X1150000Y2365316D02*
G01*
X1150000Y2256350D01*
X1150000Y2365316D02*
G01*
X1196736Y2365316D01*
X1212230Y2360236D01*
X1217564Y2354902D01*
X1222644Y2344488D01*
X1222644Y2334074D01*
X1217564Y2323660D01*
X1212230Y2318580D01*
X1196736Y2313500D01*
X1150000Y2313500D01*
X1186322Y2313500D02*
G01*
X1222644Y2256350D01*
X1256934Y2344488D02*
G01*
X1267348Y2349822D01*
X1283096Y2365316D01*
X1283096Y2256350D01*
X1327800Y2365316D02*
G01*
X1384950Y2365316D01*
X1353708Y2323660D01*
X1369202Y2323660D01*
X1379616Y2318580D01*
X1384950Y2313500D01*
X1390030Y2297752D01*
X1390030Y2287338D01*
X1384950Y2271844D01*
X1374536Y2261430D01*
X1358788Y2256350D01*
X1343294Y2256350D01*
X1327800Y2261430D01*
X1322466Y2266510D01*
X1317386Y2276924D01*
X329999Y185315D02*
G01*
X329999Y76349D01*
X329999Y185315D02*
G01*
X376735Y185315D01*
X392229Y180235D01*
X397563Y174901D01*
X402643Y164487D01*
X402643Y154073D01*
X397563Y143659D01*
X392229Y138579D01*
X376735Y133499D01*
X329999Y133499D01*
X366321Y133499D02*
G01*
X402643Y76349D01*
X436933Y164487D02*
G01*
X447347Y169821D01*
X463095Y185315D01*
X463095Y76349D01*
X549201Y185315D02*
G01*
X497385Y112671D01*
X575109Y112671D01*
X549201Y185315D02*
G01*
X549201Y76349D01*
X1429999Y185315D02*
G01*
X1429999Y76349D01*
X1429999Y185315D02*
G01*
X1476735Y185315D01*
X1492229Y180235D01*
X1497563Y174901D01*
X1502643Y164487D01*
X1502643Y154073D01*
X1497563Y143659D01*
X1492229Y138579D01*
X1476735Y133499D01*
X1429999Y133499D01*
X1466321Y133499D02*
G01*
X1502643Y76349D01*
X1536933Y164487D02*
G01*
X1547347Y169821D01*
X1563095Y185315D01*
X1563095Y76349D01*
X1659615Y185315D02*
G01*
X1607799Y185315D01*
X1602465Y138579D01*
X1607799Y143659D01*
X1623293Y148993D01*
X1638787Y148993D01*
X1654535Y143659D01*
X1664949Y133499D01*
X1670029Y117751D01*
X1670029Y107337D01*
X1664949Y91843D01*
X1654535Y81429D01*
X1638787Y76349D01*
X1623293Y76349D01*
X1607799Y81429D01*
X1602465Y86509D01*
X1597385Y96923D01*
X468071Y4478233D02*
G01*
X463753Y4487377D01*
X454609Y4496267D01*
X445465Y4500839D01*
X427177Y4500839D01*
X418287Y4496267D01*
X409143Y4487377D01*
X404571Y4478233D01*
X399999Y4464517D01*
X399999Y4441911D01*
X404571Y4428195D01*
X409143Y4419051D01*
X418287Y4409907D01*
X427177Y4405335D01*
X445465Y4405335D01*
X454609Y4409907D01*
X463753Y4419051D01*
X468071Y4428195D01*
X468071Y4441911D01*
X445465Y4441911D02*
G01*
X468071Y4441911D01*
X498297Y4500839D02*
G01*
X498297Y4405335D01*
X498297Y4500839D02*
G01*
X561797Y4405335D01*
X561797Y4500839D02*
G01*
X561797Y4405335D01*
X591769Y4500839D02*
G01*
X591769Y4405335D01*
X591769Y4500839D02*
G01*
X623519Y4500839D01*
X637235Y4496267D01*
X646379Y4487377D01*
X650951Y4478233D01*
X655523Y4464517D01*
X655523Y4441911D01*
X650951Y4428195D01*
X646379Y4419051D01*
X637235Y4409907D01*
X623519Y4405335D01*
X591769Y4405335D01*
X1399999Y4500839D02*
G01*
X1436321Y4405335D01*
X1472643Y4500839D02*
G01*
X1436321Y4405335D01*
X1502615Y4500839D02*
G01*
X1502615Y4405335D01*
X1532841Y4500839D02*
G01*
X1532841Y4405335D01*
X1532841Y4500839D02*
G01*
X1596341Y4405335D01*
X1596341Y4500839D02*
G01*
X1596341Y4405335D01*
D10*
X1905000Y3810000D02*
G01*
X1905000Y254000D01*
X127000Y254000D01*
X127000Y3810000D01*
X1905000Y3810000D01*
D17*
X616059Y3342622D02*
G01*
X616059Y3438509D01*
X483938Y3438509D01*
X483938Y3342622D01*
X616059Y3257379D02*
G01*
X616059Y3161492D01*
X483938Y3161492D01*
X483938Y3257379D01*
X616059Y2842620D02*
G01*
X616059Y2938508D01*
X483938Y2938508D01*
X483938Y2842620D01*
X616059Y2757378D02*
G01*
X616059Y2661490D01*
X483938Y2661490D01*
X483938Y2757378D01*
X616059Y2342621D02*
G01*
X616059Y2438509D01*
X483938Y2438509D01*
X483938Y2342621D01*
X616059Y2257379D02*
G01*
X616059Y2161491D01*
X483938Y2161491D01*
X483938Y2257379D01*
X616059Y1842620D02*
G01*
X616059Y1938507D01*
X483938Y1938507D01*
X483938Y1842620D01*
X616059Y1757377D02*
G01*
X616059Y1661490D01*
X483938Y1661490D01*
X483938Y1757377D01*
X616059Y1342621D02*
G01*
X616059Y1438508D01*
X483938Y1438508D01*
X483938Y1342621D01*
X616059Y1257378D02*
G01*
X616059Y1161491D01*
X483938Y1161491D01*
X483938Y1257378D01*
X616059Y992621D02*
G01*
X616059Y1088509D01*
X483938Y1088509D01*
X483938Y992621D01*
X616059Y907379D02*
G01*
X616059Y811491D01*
X483938Y811491D01*
X483938Y907379D01*
X607380Y766061D02*
G01*
X511492Y766061D01*
X511492Y633940D01*
X607380Y633940D01*
X692622Y766061D02*
G01*
X788509Y766061D01*
X788509Y633940D01*
X692622Y633940D01*
X1566059Y792622D02*
G01*
X1566059Y888509D01*
X1433939Y888509D01*
X1433939Y792622D01*
X1566059Y707379D02*
G01*
X1566059Y611492D01*
X1433939Y611492D01*
X1433939Y707379D01*
X1566059Y1192621D02*
G01*
X1566059Y1288508D01*
X1433939Y1288508D01*
X1433939Y1192621D01*
X1566059Y1107379D02*
G01*
X1566059Y1011491D01*
X1433939Y1011491D01*
X1433939Y1107379D01*
X1566059Y1542620D02*
G01*
X1566059Y1638508D01*
X1433939Y1638508D01*
X1433939Y1542620D01*
X1566059Y1457378D02*
G01*
X1566059Y1361490D01*
X1433939Y1361490D01*
X1433939Y1457378D01*
X1566059Y1942622D02*
G01*
X1566059Y2038510D01*
X1433939Y2038510D01*
X1433939Y1942622D01*
X1566059Y1857380D02*
G01*
X1566059Y1761492D01*
X1433939Y1761492D01*
X1433939Y1857380D01*
X1066060Y2592621D02*
G01*
X1066060Y2688508D01*
X933940Y2688508D01*
X933940Y2592621D01*
X1066060Y2507378D02*
G01*
X1066060Y2411491D01*
X933940Y2411491D01*
X933940Y2507378D01*
X1316060Y2592621D02*
G01*
X1316060Y2688508D01*
X1183939Y2688508D01*
X1183939Y2592621D01*
X1316060Y2507378D02*
G01*
X1316060Y2411491D01*
X1183939Y2411491D01*
X1183939Y2507378D01*
X784621Y63939D02*
G01*
X880508Y63939D01*
X880508Y196060D01*
X784621Y196060D01*
X699378Y63939D02*
G01*
X603491Y63939D01*
X603491Y196060D01*
X699378Y196060D01*
X1292621Y63939D02*
G01*
X1388508Y63939D01*
X1388508Y196060D01*
X1292621Y196060D01*
X1207378Y63939D02*
G01*
X1111491Y63939D01*
X1111491Y196060D01*
X1207378Y196060D01*
D10*
G75*
G01
X381000Y4318000D02*
G03X381000Y4318000I-127000J0D01*
G75*
G01
X1905000Y4318000D02*
G03X1905000Y4318000I-127000J0D01*
M02*
