G04 Layer: TopLayer*
G04 EasyEDA v6.4.25, 2022-02-03T13:57:38+11:00*
G04 a67cddfb3fce44daa9051d46cbbcc19f,10*
G04 Gerber Generator version 0.2*
G04 Scale: 100 percent, Rotated: No, Reflected: No *
G04 Dimensions in millimeters *
G04 leading zeros omitted , absolute positions ,4 integer and 5 decimal *
%FSLAX45Y45*%
%MOMM*%

%ADD10C,0.2540*%
%ADD11C,1.0000*%
%ADD12C,0.6096*%
%ADD13R,0.8640X0.8065*%
%ADD15C,1.5240*%
%ADD16C,1.9000*%

%LPD*%
G36*
X254304Y25908D02*
G01*
X233679Y26873D01*
X213969Y29514D01*
X194564Y33832D01*
X175564Y39878D01*
X157226Y47498D01*
X139598Y56743D01*
X122834Y67462D01*
X107086Y79603D01*
X92456Y93065D01*
X79044Y107746D01*
X66954Y123545D01*
X56286Y140360D01*
X47142Y158038D01*
X39573Y176428D01*
X33629Y195427D01*
X29362Y214833D01*
X26771Y234543D01*
X25908Y254762D01*
X25908Y4317238D01*
X26873Y4338320D01*
X29514Y4358030D01*
X33832Y4377436D01*
X39878Y4396435D01*
X47498Y4414774D01*
X56743Y4432401D01*
X67462Y4449165D01*
X79603Y4464913D01*
X93065Y4479544D01*
X107746Y4492955D01*
X123545Y4505045D01*
X140360Y4515713D01*
X158038Y4524857D01*
X176428Y4532426D01*
X195427Y4538370D01*
X214833Y4542637D01*
X234543Y4545228D01*
X254762Y4546092D01*
X1777238Y4546092D01*
X1798320Y4545126D01*
X1818030Y4542485D01*
X1837436Y4538167D01*
X1856435Y4532122D01*
X1874774Y4524502D01*
X1892401Y4515256D01*
X1909165Y4504537D01*
X1924913Y4492396D01*
X1939543Y4478934D01*
X1953006Y4464253D01*
X1965045Y4448454D01*
X1975713Y4431639D01*
X1984857Y4413961D01*
X1992426Y4395571D01*
X1998370Y4376572D01*
X2002637Y4357166D01*
X2005228Y4337456D01*
X2006092Y4317238D01*
X2006092Y254762D01*
X2005126Y233679D01*
X2002485Y213969D01*
X1998167Y194564D01*
X1992122Y175564D01*
X1984502Y157226D01*
X1975256Y139598D01*
X1964537Y122834D01*
X1952396Y107086D01*
X1938934Y92456D01*
X1924253Y78994D01*
X1908454Y66954D01*
X1891639Y56286D01*
X1873961Y47142D01*
X1855571Y39573D01*
X1836572Y33629D01*
X1817166Y29362D01*
X1797456Y26771D01*
X1777238Y25908D01*
G37*

%LPC*%
G36*
X307848Y4371848D02*
G01*
X362051Y4371848D01*
X360527Y4375200D01*
X352653Y4387850D01*
X343357Y4399432D01*
X332638Y4409795D01*
X320751Y4418787D01*
X307848Y4426254D01*
G37*
G36*
X626922Y60909D02*
G01*
X706424Y60909D01*
X712774Y61620D01*
X718210Y63500D01*
X723138Y66598D01*
X727202Y70662D01*
X730300Y75590D01*
X732434Y81686D01*
X734568Y85191D01*
X737920Y87630D01*
X741984Y88442D01*
X746048Y87630D01*
X749452Y85191D01*
X751586Y81686D01*
X753719Y75590D01*
X756818Y70662D01*
X760882Y66598D01*
X765810Y63500D01*
X771245Y61620D01*
X777595Y60909D01*
X857097Y60909D01*
X863396Y61620D01*
X868883Y63500D01*
X873760Y66598D01*
X877874Y70662D01*
X880922Y75590D01*
X882853Y81026D01*
X884072Y85902D01*
X886307Y88798D01*
X889457Y90728D01*
X893064Y91389D01*
X1098905Y91389D01*
X1102512Y90728D01*
X1105662Y88798D01*
X1107948Y85902D01*
X1109167Y81026D01*
X1111046Y75590D01*
X1114145Y70662D01*
X1118260Y66598D01*
X1123137Y63500D01*
X1128623Y61620D01*
X1134922Y60909D01*
X1214424Y60909D01*
X1220774Y61620D01*
X1226210Y63500D01*
X1231138Y66598D01*
X1235202Y70662D01*
X1238300Y75590D01*
X1240434Y81686D01*
X1242568Y85191D01*
X1245920Y87630D01*
X1249984Y88442D01*
X1254048Y87630D01*
X1257452Y85191D01*
X1259586Y81686D01*
X1261719Y75590D01*
X1264818Y70662D01*
X1268882Y66598D01*
X1273810Y63500D01*
X1279245Y61620D01*
X1285595Y60909D01*
X1298803Y60909D01*
X1298803Y102057D01*
X1251051Y102057D01*
X1247190Y102819D01*
X1243888Y105003D01*
X1241704Y108305D01*
X1240891Y112217D01*
X1240891Y147777D01*
X1241704Y151688D01*
X1243888Y154990D01*
X1247190Y157175D01*
X1251051Y157937D01*
X1298803Y157937D01*
X1298803Y205232D01*
X1299565Y209143D01*
X1301800Y212394D01*
X1305102Y214629D01*
X1308963Y215392D01*
X1341678Y215392D01*
X1345539Y214629D01*
X1348841Y212394D01*
X1351076Y209143D01*
X1351838Y205232D01*
X1351838Y157937D01*
X1391564Y157937D01*
X1391564Y172618D01*
X1390853Y178968D01*
X1388922Y184404D01*
X1385874Y189331D01*
X1381760Y193395D01*
X1376629Y196646D01*
X1373530Y199644D01*
X1372006Y203708D01*
X1372260Y208025D01*
X1374343Y211836D01*
X1377797Y214477D01*
X1382014Y215392D01*
X1399489Y215392D01*
X1407515Y216204D01*
X1414780Y218389D01*
X1421434Y221945D01*
X1427276Y226720D01*
X1432052Y232562D01*
X1433525Y235305D01*
X1435303Y237693D01*
X1480007Y282397D01*
X1483106Y284530D01*
X1486763Y285343D01*
X1490522Y284784D01*
X1497025Y282549D01*
X1510385Y279806D01*
X1524000Y278892D01*
X1537614Y279806D01*
X1550974Y282549D01*
X1563878Y287020D01*
X1576019Y293166D01*
X1587246Y300888D01*
X1597406Y310032D01*
X1606194Y320446D01*
X1613509Y331927D01*
X1619250Y344322D01*
X1623314Y357327D01*
X1625549Y370789D01*
X1626006Y384403D01*
X1624685Y397967D01*
X1621485Y411226D01*
X1616608Y423976D01*
X1610055Y435914D01*
X1601978Y446887D01*
X1592478Y456692D01*
X1581759Y465175D01*
X1570024Y472135D01*
X1557477Y477418D01*
X1544320Y481025D01*
X1530807Y482854D01*
X1517192Y482854D01*
X1503680Y481025D01*
X1490522Y477418D01*
X1477975Y472135D01*
X1466240Y465175D01*
X1455521Y456692D01*
X1446022Y446887D01*
X1437944Y435914D01*
X1431391Y423976D01*
X1426514Y411226D01*
X1423314Y397967D01*
X1421993Y384403D01*
X1422450Y370789D01*
X1424686Y357327D01*
X1427835Y347116D01*
X1428292Y343509D01*
X1427429Y339953D01*
X1425346Y336956D01*
X1383995Y295605D01*
X1380693Y293370D01*
X1376781Y292608D01*
X1350518Y292608D01*
X1346758Y293319D01*
X1343507Y295402D01*
X1341272Y298500D01*
X1340358Y302209D01*
X1340866Y306019D01*
X1342745Y309321D01*
X1352194Y320446D01*
X1359509Y331927D01*
X1365250Y344322D01*
X1369314Y357327D01*
X1371549Y370789D01*
X1372006Y384403D01*
X1370685Y397967D01*
X1367485Y411226D01*
X1362608Y423976D01*
X1356055Y435914D01*
X1347978Y446887D01*
X1338478Y456692D01*
X1327759Y465175D01*
X1316024Y472135D01*
X1303477Y477418D01*
X1290320Y481025D01*
X1276807Y482854D01*
X1263192Y482854D01*
X1249680Y481025D01*
X1236522Y477418D01*
X1223975Y472135D01*
X1212240Y465175D01*
X1201521Y456692D01*
X1192022Y446887D01*
X1183944Y435914D01*
X1177391Y423976D01*
X1172514Y411226D01*
X1169314Y397967D01*
X1167993Y384403D01*
X1168450Y370789D01*
X1170686Y357327D01*
X1174750Y344322D01*
X1180490Y331927D01*
X1187805Y320446D01*
X1196594Y310032D01*
X1206754Y300888D01*
X1217980Y293166D01*
X1229766Y287223D01*
X1232763Y284886D01*
X1234744Y281584D01*
X1235354Y277825D01*
X1234490Y274116D01*
X1232357Y270967D01*
X1163472Y202082D01*
X1160170Y199898D01*
X1156309Y199085D01*
X1134922Y199085D01*
X1128623Y198374D01*
X1123137Y196494D01*
X1118260Y193395D01*
X1114145Y189331D01*
X1111046Y184404D01*
X1109167Y178968D01*
X1107948Y174091D01*
X1105662Y171196D01*
X1102512Y169265D01*
X1098905Y168605D01*
X893064Y168605D01*
X889457Y169265D01*
X886307Y171196D01*
X884072Y174091D01*
X882853Y178968D01*
X880922Y184404D01*
X877874Y189331D01*
X873760Y193395D01*
X868883Y196494D01*
X863396Y198374D01*
X857097Y199085D01*
X777595Y199085D01*
X771245Y198374D01*
X765810Y196494D01*
X760882Y193395D01*
X756818Y189331D01*
X753719Y184404D01*
X751586Y178358D01*
X749452Y174802D01*
X746048Y172364D01*
X741984Y171551D01*
X737920Y172364D01*
X734568Y174802D01*
X732434Y178358D01*
X730300Y184404D01*
X727202Y189331D01*
X723138Y193395D01*
X718210Y196494D01*
X712063Y198628D01*
X708507Y200761D01*
X706120Y204165D01*
X705256Y208229D01*
X705256Y221843D01*
X704494Y229870D01*
X702310Y237083D01*
X698703Y243738D01*
X693623Y249986D01*
X606653Y336956D01*
X604570Y339953D01*
X603707Y343509D01*
X604164Y347116D01*
X607314Y357327D01*
X609549Y370789D01*
X610006Y384403D01*
X608685Y397967D01*
X605485Y411226D01*
X600608Y423976D01*
X594055Y435914D01*
X585978Y446887D01*
X576478Y456692D01*
X565759Y465175D01*
X554024Y472135D01*
X541477Y477418D01*
X528320Y481025D01*
X514807Y482854D01*
X501192Y482854D01*
X487680Y481025D01*
X474522Y477418D01*
X461975Y472135D01*
X450240Y465175D01*
X439521Y456692D01*
X430022Y446887D01*
X421944Y435914D01*
X415391Y423976D01*
X410514Y411226D01*
X407314Y397967D01*
X405993Y384403D01*
X406450Y370789D01*
X408686Y357327D01*
X412750Y344322D01*
X418490Y331927D01*
X425805Y320446D01*
X434593Y310032D01*
X444754Y300888D01*
X455980Y293166D01*
X468122Y287020D01*
X481025Y282549D01*
X494385Y279806D01*
X508000Y278892D01*
X521614Y279806D01*
X534974Y282549D01*
X541477Y284784D01*
X545236Y285343D01*
X548894Y284530D01*
X551992Y282397D01*
X620572Y213817D01*
X622808Y210413D01*
X623570Y206400D01*
X622655Y202438D01*
X620268Y199136D01*
X616762Y197053D01*
X615137Y196494D01*
X610260Y193395D01*
X606145Y189331D01*
X603046Y184404D01*
X601167Y178968D01*
X600456Y172618D01*
X600456Y87376D01*
X601167Y81026D01*
X603046Y75590D01*
X606145Y70662D01*
X610260Y66598D01*
X615137Y63500D01*
X620623Y61620D01*
G37*
G36*
X145948Y4371848D02*
G01*
X200152Y4371848D01*
X200152Y4426000D01*
X193548Y4422698D01*
X181152Y4414469D01*
X169824Y4404766D01*
X159816Y4393793D01*
X151231Y4381652D01*
G37*
G36*
X200152Y4209999D02*
G01*
X200152Y4264152D01*
X145948Y4264152D01*
X151231Y4254347D01*
X159816Y4242206D01*
X169824Y4231233D01*
X181152Y4221530D01*
X193548Y4213301D01*
G37*
G36*
X307746Y4209745D02*
G01*
X320751Y4217212D01*
X332638Y4226204D01*
X343357Y4236567D01*
X352653Y4248150D01*
X360527Y4260799D01*
X362051Y4264152D01*
X307848Y4264152D01*
G37*
G36*
X298450Y3727450D02*
G01*
X345795Y3727450D01*
X340055Y3737914D01*
X331978Y3748887D01*
X322478Y3758692D01*
X311759Y3767175D01*
X300024Y3774135D01*
X298450Y3774795D01*
G37*
G36*
X162204Y3727450D02*
G01*
X209550Y3727450D01*
X209550Y3774795D01*
X207975Y3774135D01*
X196240Y3767175D01*
X185521Y3758692D01*
X176022Y3748887D01*
X167944Y3737914D01*
G37*
G36*
X209550Y3591356D02*
G01*
X209550Y3638550D01*
X162356Y3638550D01*
X164490Y3633927D01*
X171805Y3622446D01*
X180594Y3612032D01*
X190754Y3602888D01*
X201980Y3595166D01*
G37*
G36*
X762000Y278892D02*
G01*
X775614Y279806D01*
X788974Y282549D01*
X801878Y287020D01*
X814019Y293166D01*
X825246Y300888D01*
X835406Y310032D01*
X844194Y320446D01*
X851509Y331927D01*
X857250Y344322D01*
X861314Y357327D01*
X863549Y370789D01*
X864006Y384403D01*
X862685Y397967D01*
X859485Y411226D01*
X854608Y423976D01*
X848055Y435914D01*
X839978Y446887D01*
X830478Y456692D01*
X819759Y465175D01*
X808024Y472135D01*
X795477Y477418D01*
X782320Y481025D01*
X768807Y482854D01*
X755192Y482854D01*
X741680Y481025D01*
X728522Y477418D01*
X715975Y472135D01*
X704240Y465175D01*
X693521Y456692D01*
X684022Y446887D01*
X675944Y435914D01*
X669391Y423976D01*
X664514Y411226D01*
X661314Y397967D01*
X659993Y384403D01*
X660450Y370789D01*
X662686Y357327D01*
X666750Y344322D01*
X672490Y331927D01*
X679805Y320446D01*
X688594Y310032D01*
X698754Y300888D01*
X709980Y293166D01*
X722122Y287020D01*
X735025Y282549D01*
X748385Y279806D01*
G37*
G36*
X1778000Y278892D02*
G01*
X1791614Y279806D01*
X1804974Y282549D01*
X1817878Y287020D01*
X1830019Y293166D01*
X1841246Y300888D01*
X1851406Y310032D01*
X1860194Y320446D01*
X1867509Y331927D01*
X1873250Y344322D01*
X1877314Y357327D01*
X1879549Y370789D01*
X1880006Y384403D01*
X1878685Y397967D01*
X1875485Y411226D01*
X1870608Y423976D01*
X1864055Y435914D01*
X1855978Y446887D01*
X1846478Y456692D01*
X1835759Y465175D01*
X1824024Y472135D01*
X1811477Y477418D01*
X1798320Y481025D01*
X1784807Y482854D01*
X1771192Y482854D01*
X1757680Y481025D01*
X1743710Y477164D01*
X1740154Y476859D01*
X1736699Y477774D01*
X1733804Y479806D01*
X1572107Y641502D01*
X1569872Y644804D01*
X1569110Y648716D01*
X1569110Y714451D01*
X1568399Y720750D01*
X1566468Y726236D01*
X1563420Y731113D01*
X1559306Y735228D01*
X1554429Y738276D01*
X1548333Y740410D01*
X1544777Y742543D01*
X1542389Y745947D01*
X1541526Y750011D01*
X1542389Y754075D01*
X1544777Y757428D01*
X1548333Y759612D01*
X1554429Y761695D01*
X1559306Y764794D01*
X1563420Y768908D01*
X1566722Y774141D01*
X1569161Y776833D01*
X1572361Y778459D01*
X1575968Y778865D01*
X1579524Y778002D01*
X1582470Y775919D01*
X1679346Y679043D01*
X1681530Y675843D01*
X1682343Y672033D01*
X1681632Y668223D01*
X1680514Y665226D01*
X1677314Y651967D01*
X1675993Y638403D01*
X1676450Y624789D01*
X1678686Y611327D01*
X1682750Y598322D01*
X1688490Y585927D01*
X1695805Y574446D01*
X1704593Y564032D01*
X1714754Y554888D01*
X1725980Y547166D01*
X1738122Y541020D01*
X1751025Y536549D01*
X1764385Y533806D01*
X1778000Y532892D01*
X1791614Y533806D01*
X1804974Y536549D01*
X1817878Y541020D01*
X1830019Y547166D01*
X1841246Y554888D01*
X1851406Y564032D01*
X1860194Y574446D01*
X1867509Y585927D01*
X1873250Y598322D01*
X1877314Y611327D01*
X1879549Y624789D01*
X1880006Y638403D01*
X1878685Y651967D01*
X1875485Y665226D01*
X1870608Y677976D01*
X1864055Y689914D01*
X1855978Y700887D01*
X1846478Y710692D01*
X1835759Y719175D01*
X1824024Y726135D01*
X1811477Y731418D01*
X1798320Y735025D01*
X1784807Y736854D01*
X1771192Y736854D01*
X1757680Y735025D01*
X1743710Y731164D01*
X1740154Y730859D01*
X1736699Y731774D01*
X1733804Y733806D01*
X1615287Y852271D01*
X1609090Y857402D01*
X1602384Y860958D01*
X1595170Y863142D01*
X1587144Y863955D01*
X1578203Y863955D01*
X1574139Y864819D01*
X1570786Y867206D01*
X1568602Y870762D01*
X1566468Y876858D01*
X1563420Y881786D01*
X1559306Y885850D01*
X1554429Y888949D01*
X1548942Y890828D01*
X1542643Y891540D01*
X1457350Y891540D01*
X1451051Y890828D01*
X1445564Y888949D01*
X1440688Y885850D01*
X1436573Y881786D01*
X1433525Y876858D01*
X1431594Y871423D01*
X1430883Y865073D01*
X1430883Y785571D01*
X1431594Y779272D01*
X1433525Y773785D01*
X1436573Y768908D01*
X1440688Y764794D01*
X1445564Y761695D01*
X1451660Y759612D01*
X1455216Y757428D01*
X1457604Y754075D01*
X1458468Y750011D01*
X1457604Y745947D01*
X1455216Y742543D01*
X1451660Y740410D01*
X1445564Y738276D01*
X1440688Y735228D01*
X1436573Y731113D01*
X1433525Y726236D01*
X1431594Y720750D01*
X1430883Y714451D01*
X1430883Y634949D01*
X1431594Y628599D01*
X1433525Y623163D01*
X1436573Y618236D01*
X1440688Y614172D01*
X1445564Y611073D01*
X1451051Y609142D01*
X1457350Y608431D01*
X1491742Y608431D01*
X1495653Y607669D01*
X1498955Y605485D01*
X1679346Y425043D01*
X1681530Y421843D01*
X1682343Y418033D01*
X1681632Y414223D01*
X1680514Y411226D01*
X1677314Y397967D01*
X1675993Y384403D01*
X1676450Y370789D01*
X1678686Y357327D01*
X1682750Y344322D01*
X1688490Y331927D01*
X1695805Y320446D01*
X1704593Y310032D01*
X1714754Y300888D01*
X1725980Y293166D01*
X1738122Y287020D01*
X1751025Y282549D01*
X1764385Y279806D01*
G37*
G36*
X298450Y3591356D02*
G01*
X306019Y3595166D01*
X317246Y3602888D01*
X327406Y3612032D01*
X336194Y3622446D01*
X343509Y3633927D01*
X345643Y3638550D01*
X298450Y3638550D01*
G37*
G36*
X1778000Y3580892D02*
G01*
X1791614Y3581806D01*
X1804974Y3584549D01*
X1817878Y3589020D01*
X1830019Y3595166D01*
X1841246Y3602888D01*
X1851406Y3612032D01*
X1860194Y3622446D01*
X1867509Y3633927D01*
X1873250Y3646322D01*
X1877314Y3659327D01*
X1879549Y3672789D01*
X1880006Y3686403D01*
X1878685Y3699967D01*
X1875485Y3713226D01*
X1870608Y3725976D01*
X1864055Y3737914D01*
X1855876Y3748989D01*
X1854403Y3751834D01*
X1853895Y3755034D01*
X1853895Y4219244D01*
X1854707Y4223207D01*
X1856993Y4226509D01*
X1867357Y4236567D01*
X1876653Y4248150D01*
X1884527Y4260799D01*
X1890725Y4274312D01*
X1895246Y4288536D01*
X1897989Y4303166D01*
X1898904Y4318000D01*
X1897989Y4332833D01*
X1895246Y4347464D01*
X1890725Y4361688D01*
X1884527Y4375200D01*
X1876653Y4387850D01*
X1867357Y4399432D01*
X1856638Y4409795D01*
X1844751Y4418787D01*
X1831898Y4426204D01*
X1818182Y4431995D01*
X1803857Y4436110D01*
X1789175Y4438396D01*
X1774291Y4438853D01*
X1759457Y4437481D01*
X1744929Y4434281D01*
X1730857Y4429302D01*
X1717548Y4422698D01*
X1705152Y4414469D01*
X1693824Y4404766D01*
X1683816Y4393793D01*
X1675231Y4381652D01*
X1668170Y4368546D01*
X1662785Y4354626D01*
X1659178Y4340199D01*
X1657350Y4325416D01*
X1657350Y4310583D01*
X1659178Y4295800D01*
X1662785Y4281373D01*
X1668170Y4267454D01*
X1675231Y4254347D01*
X1683816Y4242206D01*
X1693824Y4231233D01*
X1698548Y4227169D01*
X1701139Y4223715D01*
X1702104Y4219448D01*
X1702104Y3755034D01*
X1701596Y3751834D01*
X1700123Y3748989D01*
X1691944Y3737914D01*
X1685391Y3725976D01*
X1680514Y3713226D01*
X1677314Y3699967D01*
X1675993Y3686403D01*
X1676450Y3672789D01*
X1678686Y3659327D01*
X1682750Y3646322D01*
X1688490Y3633927D01*
X1695805Y3622446D01*
X1704593Y3612032D01*
X1714754Y3602888D01*
X1725980Y3595166D01*
X1738122Y3589020D01*
X1751025Y3584549D01*
X1764385Y3581806D01*
G37*
G36*
X971550Y289356D02*
G01*
X971550Y336550D01*
X924356Y336550D01*
X926490Y331927D01*
X933805Y320446D01*
X942594Y310032D01*
X952753Y300888D01*
X963980Y293166D01*
G37*
G36*
X1060450Y289356D02*
G01*
X1068019Y293166D01*
X1079246Y300888D01*
X1089406Y310032D01*
X1098194Y320446D01*
X1105509Y331927D01*
X1107643Y336550D01*
X1060450Y336550D01*
G37*
G36*
X254000Y291592D02*
G01*
X267614Y292506D01*
X280974Y295249D01*
X293878Y299720D01*
X306019Y305866D01*
X317246Y313588D01*
X327406Y322732D01*
X336194Y333146D01*
X343509Y344627D01*
X349250Y357022D01*
X353314Y370027D01*
X355549Y383489D01*
X356006Y397103D01*
X354685Y410667D01*
X351485Y423926D01*
X350367Y426923D01*
X349656Y430733D01*
X350469Y434543D01*
X352653Y437743D01*
X542798Y627938D01*
X546100Y630123D01*
X550011Y630885D01*
X614426Y630885D01*
X620776Y631596D01*
X626211Y633526D01*
X631139Y636574D01*
X635203Y640689D01*
X638302Y645566D01*
X640435Y651662D01*
X642569Y655218D01*
X645922Y657606D01*
X649986Y658469D01*
X654050Y657606D01*
X657453Y655218D01*
X659587Y651662D01*
X661720Y645566D01*
X664819Y640689D01*
X668883Y636574D01*
X673811Y633526D01*
X679246Y631596D01*
X685596Y630885D01*
X765098Y630885D01*
X771398Y631596D01*
X776884Y633526D01*
X781761Y636574D01*
X785876Y640689D01*
X788924Y645566D01*
X790854Y651052D01*
X792073Y655878D01*
X794308Y658825D01*
X797458Y660704D01*
X801065Y661365D01*
X953516Y661365D01*
X961542Y662178D01*
X968756Y664362D01*
X975410Y667918D01*
X981659Y673049D01*
X1042924Y734364D01*
X1048054Y740562D01*
X1051610Y747268D01*
X1053795Y754481D01*
X1054608Y762508D01*
X1054608Y2031492D01*
X1053795Y2039518D01*
X1051610Y2046732D01*
X1048054Y2053437D01*
X1042924Y2059635D01*
X891489Y2211120D01*
X889253Y2214422D01*
X888492Y2218334D01*
X888492Y2929737D01*
X889253Y2933649D01*
X891489Y2936951D01*
X1013002Y3058464D01*
X1016304Y3060700D01*
X1020216Y3061462D01*
X1578711Y3061462D01*
X1582623Y3060700D01*
X1585925Y3058464D01*
X1679346Y2965043D01*
X1681530Y2961843D01*
X1682343Y2958033D01*
X1681632Y2954223D01*
X1680514Y2951226D01*
X1677314Y2937967D01*
X1675993Y2924403D01*
X1676450Y2910789D01*
X1678686Y2897327D01*
X1682750Y2884322D01*
X1688490Y2871927D01*
X1695805Y2860446D01*
X1704593Y2850032D01*
X1714754Y2840888D01*
X1725980Y2833166D01*
X1738122Y2827020D01*
X1751025Y2822549D01*
X1764385Y2819806D01*
X1778000Y2818892D01*
X1791614Y2819806D01*
X1804974Y2822549D01*
X1817878Y2827020D01*
X1830019Y2833166D01*
X1841246Y2840888D01*
X1851406Y2850032D01*
X1860194Y2860446D01*
X1867509Y2871927D01*
X1873250Y2884322D01*
X1877314Y2897327D01*
X1879549Y2910789D01*
X1880006Y2924403D01*
X1878685Y2937967D01*
X1875485Y2951226D01*
X1870608Y2963976D01*
X1864055Y2975914D01*
X1855978Y2986887D01*
X1846478Y2996692D01*
X1835759Y3005175D01*
X1824024Y3012135D01*
X1811477Y3017418D01*
X1798320Y3021025D01*
X1784807Y3022854D01*
X1771192Y3022854D01*
X1757680Y3021025D01*
X1743710Y3017164D01*
X1740154Y3016859D01*
X1736699Y3017774D01*
X1733804Y3019806D01*
X1626565Y3126994D01*
X1620367Y3132124D01*
X1613662Y3135680D01*
X1606448Y3137865D01*
X1598422Y3138678D01*
X1000506Y3138678D01*
X992479Y3137865D01*
X985266Y3135680D01*
X978560Y3132124D01*
X972362Y3126994D01*
X822960Y2977591D01*
X817829Y2971393D01*
X814273Y2964688D01*
X812088Y2957474D01*
X811276Y2949448D01*
X811276Y2198624D01*
X812088Y2190597D01*
X814273Y2183384D01*
X817829Y2176678D01*
X822960Y2170480D01*
X974394Y2018995D01*
X976630Y2015693D01*
X977392Y2011781D01*
X977392Y782218D01*
X976630Y778306D01*
X974394Y775004D01*
X940968Y741578D01*
X937666Y739394D01*
X933805Y738581D01*
X801065Y738581D01*
X797458Y739292D01*
X794308Y741172D01*
X792073Y744118D01*
X790854Y748944D01*
X788924Y754430D01*
X785876Y759307D01*
X781761Y763422D01*
X776884Y766470D01*
X771398Y768400D01*
X765098Y769112D01*
X685596Y769112D01*
X679246Y768400D01*
X673811Y766470D01*
X668883Y763422D01*
X664819Y759307D01*
X661720Y754430D01*
X659587Y748334D01*
X657453Y744778D01*
X654050Y742391D01*
X649986Y741527D01*
X645922Y742391D01*
X642569Y744778D01*
X640435Y748334D01*
X638302Y754430D01*
X635203Y759307D01*
X631139Y763422D01*
X626211Y766470D01*
X620776Y768400D01*
X614426Y769112D01*
X534924Y769112D01*
X528624Y768400D01*
X523138Y766470D01*
X518261Y763422D01*
X514146Y759307D01*
X511048Y754430D01*
X509168Y748944D01*
X508457Y742645D01*
X508457Y706932D01*
X507695Y703072D01*
X505459Y699770D01*
X298196Y492506D01*
X295300Y490474D01*
X291846Y489559D01*
X288290Y489864D01*
X274320Y493725D01*
X260807Y495554D01*
X247192Y495554D01*
X233679Y493725D01*
X220522Y490118D01*
X207975Y484835D01*
X196240Y477875D01*
X185521Y469392D01*
X176022Y459587D01*
X167944Y448614D01*
X161391Y436676D01*
X156514Y423926D01*
X153314Y410667D01*
X151993Y397103D01*
X152450Y383489D01*
X154686Y370027D01*
X158750Y357022D01*
X164490Y344627D01*
X171805Y333146D01*
X180594Y322732D01*
X190754Y313588D01*
X201980Y305866D01*
X214121Y299720D01*
X227025Y295249D01*
X240385Y292506D01*
G37*
G36*
X1822450Y3473450D02*
G01*
X1869795Y3473450D01*
X1864055Y3483914D01*
X1855978Y3494887D01*
X1846478Y3504692D01*
X1835759Y3513175D01*
X1824024Y3520135D01*
X1822450Y3520795D01*
G37*
G36*
X1060450Y425450D02*
G01*
X1107795Y425450D01*
X1102055Y435914D01*
X1093978Y446887D01*
X1084478Y456692D01*
X1073759Y465175D01*
X1062024Y472135D01*
X1060450Y472795D01*
G37*
G36*
X924204Y425450D02*
G01*
X971550Y425450D01*
X971550Y472795D01*
X969975Y472135D01*
X958240Y465175D01*
X947521Y456692D01*
X938021Y446887D01*
X929944Y435914D01*
G37*
G36*
X1686204Y3473450D02*
G01*
X1733550Y3473450D01*
X1733550Y3520795D01*
X1731975Y3520135D01*
X1720240Y3513175D01*
X1709521Y3504692D01*
X1700022Y3494887D01*
X1691944Y3483914D01*
G37*
G36*
X1733550Y3337356D02*
G01*
X1733550Y3384550D01*
X1686356Y3384550D01*
X1688490Y3379927D01*
X1695805Y3368446D01*
X1704593Y3358032D01*
X1714754Y3348888D01*
X1725980Y3341166D01*
G37*
G36*
X254000Y532892D02*
G01*
X267614Y533806D01*
X280974Y536549D01*
X293878Y541020D01*
X306019Y547166D01*
X317246Y554888D01*
X327406Y564032D01*
X336194Y574446D01*
X343509Y585927D01*
X349250Y598322D01*
X353314Y611327D01*
X355549Y624789D01*
X356006Y638403D01*
X354685Y651967D01*
X351485Y665226D01*
X350367Y668223D01*
X349656Y672033D01*
X350469Y675843D01*
X352653Y679043D01*
X483158Y809548D01*
X486918Y811936D01*
X491337Y812495D01*
X501040Y809142D01*
X507390Y808431D01*
X592632Y808431D01*
X598932Y809142D01*
X604418Y811072D01*
X609295Y814171D01*
X613410Y818235D01*
X616508Y823163D01*
X618388Y828598D01*
X619099Y834948D01*
X619099Y914450D01*
X618388Y920750D01*
X616508Y926236D01*
X613410Y931113D01*
X609295Y935228D01*
X604418Y938276D01*
X598322Y940409D01*
X594766Y942543D01*
X592378Y945946D01*
X591515Y950010D01*
X592378Y954074D01*
X594766Y957427D01*
X598322Y959612D01*
X604418Y961694D01*
X609295Y964793D01*
X613410Y968908D01*
X616508Y973785D01*
X618388Y979271D01*
X619099Y985570D01*
X619099Y1065072D01*
X618388Y1071422D01*
X616508Y1076858D01*
X613410Y1081786D01*
X609295Y1085850D01*
X604418Y1088948D01*
X598932Y1090828D01*
X592632Y1091539D01*
X507390Y1091539D01*
X501040Y1090828D01*
X495604Y1088948D01*
X490677Y1085850D01*
X486613Y1081786D01*
X483514Y1076858D01*
X481380Y1070762D01*
X479247Y1067206D01*
X475843Y1064818D01*
X471779Y1063955D01*
X390855Y1063955D01*
X382828Y1063142D01*
X375615Y1060958D01*
X368909Y1057402D01*
X362712Y1052271D01*
X298196Y987806D01*
X295300Y985774D01*
X291846Y984859D01*
X288290Y985164D01*
X274320Y989025D01*
X260807Y990853D01*
X247192Y990853D01*
X233679Y989025D01*
X220522Y985418D01*
X207975Y980135D01*
X196240Y973175D01*
X185521Y964692D01*
X176022Y954887D01*
X167944Y943914D01*
X161391Y931976D01*
X156514Y919226D01*
X153314Y905967D01*
X151993Y892403D01*
X152450Y878789D01*
X154686Y865327D01*
X158750Y852322D01*
X164490Y839927D01*
X171805Y828446D01*
X180594Y818032D01*
X190754Y808888D01*
X201980Y801166D01*
X214121Y795020D01*
X227025Y790549D01*
X240385Y787806D01*
X254000Y786892D01*
X267614Y787806D01*
X280974Y790549D01*
X293878Y795020D01*
X306019Y801166D01*
X317246Y808888D01*
X327406Y818032D01*
X336194Y828446D01*
X343509Y839927D01*
X349250Y852322D01*
X353314Y865327D01*
X355549Y878789D01*
X356006Y892403D01*
X354685Y905967D01*
X351485Y919226D01*
X350367Y922223D01*
X349656Y926033D01*
X350469Y929843D01*
X352653Y933043D01*
X403352Y983742D01*
X406654Y985977D01*
X410565Y986739D01*
X471779Y986739D01*
X475843Y985875D01*
X479196Y983487D01*
X481380Y979932D01*
X483514Y973785D01*
X486613Y968908D01*
X490677Y964793D01*
X495604Y961694D01*
X501650Y959612D01*
X505206Y957427D01*
X507593Y954074D01*
X508457Y950010D01*
X507593Y945946D01*
X505206Y942543D01*
X501650Y940409D01*
X495604Y938276D01*
X490677Y935228D01*
X486613Y931113D01*
X483514Y926236D01*
X481584Y920750D01*
X481126Y916482D01*
X480263Y913333D01*
X478383Y910640D01*
X475792Y908659D01*
X472236Y906729D01*
X466039Y901598D01*
X298196Y733806D01*
X295300Y731774D01*
X291846Y730859D01*
X288290Y731164D01*
X274320Y735025D01*
X260807Y736854D01*
X247192Y736854D01*
X233679Y735025D01*
X220522Y731418D01*
X207975Y726135D01*
X196240Y719175D01*
X185521Y710692D01*
X176022Y700887D01*
X167944Y689914D01*
X161391Y677976D01*
X156514Y665226D01*
X153314Y651967D01*
X151993Y638403D01*
X152450Y624789D01*
X154686Y611327D01*
X158750Y598322D01*
X164490Y585927D01*
X171805Y574446D01*
X180594Y564032D01*
X190754Y554888D01*
X201980Y547166D01*
X214121Y541020D01*
X227025Y536549D01*
X240385Y533806D01*
G37*
G36*
X1822450Y3337356D02*
G01*
X1830019Y3341166D01*
X1841246Y3348888D01*
X1851406Y3358032D01*
X1860194Y3368446D01*
X1867509Y3379927D01*
X1869643Y3384550D01*
X1822450Y3384550D01*
G37*
G36*
X1524000Y3326892D02*
G01*
X1537614Y3327806D01*
X1550974Y3330549D01*
X1563878Y3335020D01*
X1576019Y3341166D01*
X1587246Y3348888D01*
X1597406Y3358032D01*
X1606194Y3368446D01*
X1613509Y3379927D01*
X1619250Y3392322D01*
X1623314Y3405327D01*
X1625549Y3418789D01*
X1626006Y3432403D01*
X1624685Y3445967D01*
X1621485Y3459226D01*
X1616608Y3471976D01*
X1610055Y3483914D01*
X1601978Y3494887D01*
X1592478Y3504692D01*
X1581759Y3513175D01*
X1570024Y3520135D01*
X1557477Y3525418D01*
X1544320Y3529025D01*
X1530807Y3530854D01*
X1517192Y3530854D01*
X1503680Y3529025D01*
X1490522Y3525418D01*
X1477975Y3520135D01*
X1466240Y3513175D01*
X1455521Y3504692D01*
X1446022Y3494887D01*
X1437944Y3483914D01*
X1431391Y3471976D01*
X1426514Y3459226D01*
X1423314Y3445967D01*
X1421993Y3432403D01*
X1422450Y3418789D01*
X1424686Y3405327D01*
X1428750Y3392322D01*
X1434490Y3379927D01*
X1441805Y3368446D01*
X1450594Y3358032D01*
X1460754Y3348888D01*
X1471980Y3341166D01*
X1484122Y3335020D01*
X1497025Y3330549D01*
X1510385Y3327806D01*
G37*
G36*
X254000Y3072892D02*
G01*
X267614Y3073806D01*
X280974Y3076549D01*
X293878Y3081020D01*
X306019Y3087166D01*
X317246Y3094888D01*
X327406Y3104032D01*
X336194Y3114446D01*
X343509Y3125927D01*
X349250Y3138322D01*
X353314Y3151327D01*
X355549Y3164789D01*
X355955Y3176219D01*
X356819Y3180029D01*
X359054Y3183178D01*
X362305Y3185312D01*
X366115Y3186023D01*
X471779Y3186023D01*
X475843Y3185210D01*
X479247Y3182823D01*
X481380Y3179267D01*
X483514Y3173120D01*
X486613Y3168243D01*
X490677Y3164128D01*
X495604Y3161080D01*
X501040Y3159150D01*
X507390Y3158439D01*
X592632Y3158439D01*
X598932Y3159150D01*
X604418Y3161080D01*
X609295Y3164128D01*
X613410Y3168243D01*
X616508Y3173120D01*
X618388Y3178606D01*
X619099Y3184906D01*
X619099Y3264408D01*
X618388Y3270758D01*
X616508Y3276193D01*
X613410Y3281121D01*
X609295Y3285185D01*
X604418Y3288284D01*
X598322Y3290417D01*
X594766Y3292551D01*
X592378Y3295954D01*
X591515Y3300018D01*
X592378Y3304082D01*
X594766Y3307435D01*
X598322Y3309569D01*
X604418Y3311702D01*
X609295Y3314801D01*
X613410Y3318865D01*
X616508Y3323793D01*
X618388Y3329228D01*
X619099Y3335578D01*
X619099Y3415080D01*
X618388Y3421379D01*
X616508Y3426866D01*
X613410Y3431743D01*
X609295Y3435858D01*
X604418Y3438956D01*
X598932Y3440836D01*
X592632Y3441547D01*
X507390Y3441547D01*
X501040Y3440836D01*
X495604Y3438956D01*
X490677Y3435858D01*
X486613Y3431743D01*
X483514Y3426866D01*
X481380Y3420719D01*
X479247Y3417163D01*
X475843Y3414776D01*
X471779Y3413912D01*
X365912Y3413912D01*
X361950Y3414725D01*
X358597Y3417011D01*
X356412Y3420465D01*
X355752Y3424428D01*
X356006Y3432403D01*
X354685Y3445967D01*
X351485Y3459226D01*
X346608Y3471976D01*
X340055Y3483914D01*
X331978Y3494887D01*
X322478Y3504692D01*
X311759Y3513175D01*
X300024Y3520135D01*
X287477Y3525418D01*
X274320Y3529025D01*
X260807Y3530854D01*
X247192Y3530854D01*
X233679Y3529025D01*
X220522Y3525418D01*
X207975Y3520135D01*
X196240Y3513175D01*
X185521Y3504692D01*
X176022Y3494887D01*
X167944Y3483914D01*
X161391Y3471976D01*
X156514Y3459226D01*
X153314Y3445967D01*
X151993Y3432403D01*
X152450Y3418789D01*
X154686Y3405327D01*
X158750Y3392322D01*
X164490Y3379927D01*
X171805Y3368446D01*
X180594Y3358032D01*
X190754Y3348888D01*
X201980Y3341166D01*
X214121Y3335020D01*
X227025Y3330549D01*
X240385Y3327806D01*
X254000Y3326892D01*
X267614Y3327806D01*
X280974Y3330549D01*
X293878Y3335020D01*
X299110Y3337204D01*
X301955Y3337356D01*
X308152Y3336696D01*
X471779Y3336696D01*
X475843Y3335883D01*
X479247Y3333496D01*
X481380Y3329940D01*
X483514Y3323793D01*
X486613Y3318865D01*
X490677Y3314801D01*
X495604Y3311702D01*
X501650Y3309569D01*
X505206Y3307435D01*
X507593Y3304082D01*
X508457Y3300018D01*
X507593Y3295954D01*
X505206Y3292551D01*
X501650Y3290417D01*
X495604Y3288284D01*
X490677Y3285185D01*
X486613Y3281121D01*
X483514Y3276193D01*
X481380Y3270046D01*
X479247Y3266490D01*
X475843Y3264103D01*
X471779Y3263239D01*
X307644Y3263239D01*
X304952Y3263646D01*
X300024Y3266135D01*
X287477Y3271418D01*
X274320Y3275025D01*
X260807Y3276854D01*
X247192Y3276854D01*
X233679Y3275025D01*
X220522Y3271418D01*
X207975Y3266135D01*
X196240Y3259175D01*
X185521Y3250692D01*
X176022Y3240887D01*
X167944Y3229914D01*
X161391Y3217976D01*
X156514Y3205226D01*
X153314Y3191967D01*
X151993Y3178403D01*
X152450Y3164789D01*
X154686Y3151327D01*
X158750Y3138322D01*
X164490Y3125927D01*
X171805Y3114446D01*
X180594Y3104032D01*
X190754Y3094888D01*
X201980Y3087166D01*
X214121Y3081020D01*
X227025Y3076549D01*
X240385Y3073806D01*
G37*
G36*
X1778000Y3072892D02*
G01*
X1791614Y3073806D01*
X1804974Y3076549D01*
X1817878Y3081020D01*
X1830019Y3087166D01*
X1841246Y3094888D01*
X1851406Y3104032D01*
X1860194Y3114446D01*
X1867509Y3125927D01*
X1873250Y3138322D01*
X1877314Y3151327D01*
X1879549Y3164789D01*
X1880006Y3178403D01*
X1878685Y3191967D01*
X1875485Y3205226D01*
X1870608Y3217976D01*
X1864055Y3229914D01*
X1855978Y3240887D01*
X1846478Y3250692D01*
X1835759Y3259175D01*
X1824024Y3266135D01*
X1811477Y3271418D01*
X1798320Y3275025D01*
X1784807Y3276854D01*
X1771192Y3276854D01*
X1757680Y3275025D01*
X1744522Y3271418D01*
X1731975Y3266135D01*
X1720240Y3259175D01*
X1709521Y3250692D01*
X1700022Y3240887D01*
X1691944Y3229914D01*
X1685391Y3217976D01*
X1680514Y3205226D01*
X1677314Y3191967D01*
X1675993Y3178403D01*
X1676450Y3164789D01*
X1678686Y3151327D01*
X1682750Y3138322D01*
X1688490Y3125927D01*
X1695805Y3114446D01*
X1704593Y3104032D01*
X1714754Y3094888D01*
X1725980Y3087166D01*
X1738122Y3081020D01*
X1751025Y3076549D01*
X1764385Y3073806D01*
G37*
G36*
X254000Y2564892D02*
G01*
X267614Y2565806D01*
X280974Y2568549D01*
X293878Y2573020D01*
X306019Y2579166D01*
X317246Y2586888D01*
X327406Y2596032D01*
X336194Y2606446D01*
X343509Y2617927D01*
X349250Y2630322D01*
X353314Y2643327D01*
X355549Y2656789D01*
X356006Y2670403D01*
X355600Y2674874D01*
X356057Y2679039D01*
X358140Y2682697D01*
X361543Y2685186D01*
X365709Y2686050D01*
X471779Y2686050D01*
X475843Y2685186D01*
X479247Y2682798D01*
X481380Y2679242D01*
X483514Y2673146D01*
X486613Y2668219D01*
X490677Y2664155D01*
X495604Y2661056D01*
X501040Y2659176D01*
X507390Y2658465D01*
X592632Y2658465D01*
X598932Y2659176D01*
X604418Y2661056D01*
X609295Y2664155D01*
X613410Y2668219D01*
X616508Y2673146D01*
X618388Y2678582D01*
X619099Y2684932D01*
X619099Y2764434D01*
X618388Y2770733D01*
X616508Y2776220D01*
X613410Y2781096D01*
X609295Y2785211D01*
X604418Y2788259D01*
X598322Y2790393D01*
X594766Y2792526D01*
X592378Y2795930D01*
X591515Y2799994D01*
X592378Y2804058D01*
X594766Y2807462D01*
X598322Y2809595D01*
X604418Y2811729D01*
X609295Y2814777D01*
X613410Y2818892D01*
X616508Y2823768D01*
X618388Y2829255D01*
X619099Y2835554D01*
X619099Y2915056D01*
X618388Y2921406D01*
X616508Y2926842D01*
X613410Y2931769D01*
X609295Y2935833D01*
X604418Y2938932D01*
X598932Y2940862D01*
X592632Y2941574D01*
X507390Y2941574D01*
X501040Y2940862D01*
X495604Y2938932D01*
X490677Y2935833D01*
X486613Y2931769D01*
X483514Y2926842D01*
X481380Y2920746D01*
X479247Y2917190D01*
X475843Y2914802D01*
X471779Y2913938D01*
X366166Y2913938D01*
X362204Y2914751D01*
X358902Y2917037D01*
X356717Y2920441D01*
X356006Y2924403D01*
X354685Y2937967D01*
X351485Y2951226D01*
X346608Y2963976D01*
X340055Y2975914D01*
X331978Y2986887D01*
X322478Y2996692D01*
X311759Y3005175D01*
X300024Y3012135D01*
X287477Y3017418D01*
X274320Y3021025D01*
X260807Y3022854D01*
X247192Y3022854D01*
X233679Y3021025D01*
X220522Y3017418D01*
X207975Y3012135D01*
X196240Y3005175D01*
X185521Y2996692D01*
X176022Y2986887D01*
X167944Y2975914D01*
X161391Y2963976D01*
X156514Y2951226D01*
X153314Y2937967D01*
X151993Y2924403D01*
X152450Y2910789D01*
X154686Y2897327D01*
X158750Y2884322D01*
X164490Y2871927D01*
X171805Y2860446D01*
X180594Y2850032D01*
X190754Y2840888D01*
X201980Y2833166D01*
X214121Y2827020D01*
X227025Y2822549D01*
X240385Y2819806D01*
X254000Y2818892D01*
X267614Y2819806D01*
X280974Y2822549D01*
X293878Y2827020D01*
X306019Y2833166D01*
X308610Y2834944D01*
X311353Y2836265D01*
X314350Y2836722D01*
X471779Y2836722D01*
X475843Y2835859D01*
X479247Y2833471D01*
X481380Y2829915D01*
X483514Y2823768D01*
X486613Y2818892D01*
X490677Y2814777D01*
X495604Y2811729D01*
X501650Y2809595D01*
X505206Y2807462D01*
X507593Y2804058D01*
X508457Y2799994D01*
X507593Y2795930D01*
X505206Y2792526D01*
X501650Y2790393D01*
X495604Y2788259D01*
X490677Y2785211D01*
X486613Y2781096D01*
X483514Y2776220D01*
X481380Y2770073D01*
X479247Y2766517D01*
X475843Y2764129D01*
X471779Y2763266D01*
X312166Y2763266D01*
X304139Y2762453D01*
X299262Y2760980D01*
X295808Y2760573D01*
X292354Y2761386D01*
X287477Y2763418D01*
X274320Y2767025D01*
X260807Y2768854D01*
X247192Y2768854D01*
X233679Y2767025D01*
X220522Y2763418D01*
X207975Y2758135D01*
X196240Y2751175D01*
X185521Y2742692D01*
X176022Y2732887D01*
X167944Y2721914D01*
X161391Y2709976D01*
X156514Y2697226D01*
X153314Y2683967D01*
X151993Y2670403D01*
X152450Y2656789D01*
X154686Y2643327D01*
X158750Y2630322D01*
X164490Y2617927D01*
X171805Y2606446D01*
X180594Y2596032D01*
X190754Y2586888D01*
X201980Y2579166D01*
X214121Y2573020D01*
X227025Y2568549D01*
X240385Y2565806D01*
G37*
G36*
X1214628Y2247392D02*
G01*
X1650492Y2247392D01*
X1658518Y2248204D01*
X1665732Y2250389D01*
X1672437Y2253945D01*
X1678635Y2259076D01*
X1734007Y2314397D01*
X1737106Y2316530D01*
X1740763Y2317343D01*
X1744522Y2316784D01*
X1751025Y2314549D01*
X1764385Y2311806D01*
X1778000Y2310892D01*
X1791614Y2311806D01*
X1804974Y2314549D01*
X1817878Y2319020D01*
X1830019Y2325166D01*
X1841246Y2332888D01*
X1851406Y2342032D01*
X1860194Y2352446D01*
X1867509Y2363927D01*
X1873250Y2376322D01*
X1877314Y2389327D01*
X1879549Y2402789D01*
X1880006Y2416403D01*
X1878685Y2429967D01*
X1875485Y2443226D01*
X1870608Y2455976D01*
X1864055Y2467914D01*
X1855978Y2478887D01*
X1846478Y2488692D01*
X1835759Y2497175D01*
X1824024Y2504135D01*
X1811477Y2509418D01*
X1798320Y2513025D01*
X1784807Y2514854D01*
X1771192Y2514854D01*
X1757680Y2513025D01*
X1744522Y2509418D01*
X1731975Y2504135D01*
X1720240Y2497175D01*
X1709521Y2488692D01*
X1700022Y2478887D01*
X1691944Y2467914D01*
X1685391Y2455976D01*
X1680514Y2443226D01*
X1677314Y2429967D01*
X1675993Y2416403D01*
X1676450Y2402789D01*
X1678686Y2389327D01*
X1681835Y2379116D01*
X1682292Y2375509D01*
X1681429Y2371953D01*
X1679346Y2368956D01*
X1637995Y2327605D01*
X1634693Y2325370D01*
X1630781Y2324608D01*
X1604518Y2324608D01*
X1600758Y2325319D01*
X1597507Y2327402D01*
X1595272Y2330500D01*
X1594358Y2334209D01*
X1594866Y2338019D01*
X1596745Y2341321D01*
X1606194Y2352446D01*
X1613509Y2363927D01*
X1619250Y2376322D01*
X1623314Y2389327D01*
X1625549Y2402789D01*
X1626006Y2416403D01*
X1624685Y2429967D01*
X1621485Y2443226D01*
X1616608Y2455976D01*
X1610055Y2467914D01*
X1601978Y2478887D01*
X1592478Y2488692D01*
X1581759Y2497175D01*
X1570024Y2504135D01*
X1557477Y2509418D01*
X1544320Y2513025D01*
X1530807Y2514854D01*
X1517192Y2514854D01*
X1503680Y2513025D01*
X1490522Y2509418D01*
X1488389Y2508554D01*
X1483969Y2507742D01*
X1479651Y2508910D01*
X1477060Y2510282D01*
X1469847Y2512466D01*
X1461820Y2513279D01*
X1328216Y2513279D01*
X1324152Y2514142D01*
X1320749Y2516530D01*
X1318615Y2520086D01*
X1316482Y2526233D01*
X1313383Y2531110D01*
X1309319Y2535224D01*
X1304391Y2538272D01*
X1298346Y2540406D01*
X1294790Y2542540D01*
X1292402Y2545943D01*
X1291539Y2550007D01*
X1292402Y2554071D01*
X1294790Y2557424D01*
X1298346Y2559608D01*
X1304391Y2561691D01*
X1309319Y2564790D01*
X1313383Y2568905D01*
X1316482Y2573782D01*
X1318615Y2579928D01*
X1320800Y2583484D01*
X1324152Y2585872D01*
X1328216Y2586736D01*
X1457807Y2586736D01*
X1460804Y2586278D01*
X1463548Y2584958D01*
X1471980Y2579166D01*
X1484122Y2573020D01*
X1497025Y2568549D01*
X1510385Y2565806D01*
X1524000Y2564892D01*
X1537614Y2565806D01*
X1550974Y2568549D01*
X1563878Y2573020D01*
X1576019Y2579166D01*
X1587246Y2586888D01*
X1597406Y2596032D01*
X1606194Y2606446D01*
X1613509Y2617927D01*
X1619250Y2630322D01*
X1623314Y2643327D01*
X1625549Y2656789D01*
X1626006Y2670403D01*
X1624685Y2683967D01*
X1621485Y2697226D01*
X1616608Y2709976D01*
X1610055Y2721914D01*
X1601978Y2732887D01*
X1596847Y2738170D01*
X1594713Y2741472D01*
X1594002Y2745333D01*
X1594815Y2749194D01*
X1597050Y2752445D01*
X1600301Y2754630D01*
X1604162Y2755392D01*
X1630781Y2755392D01*
X1634693Y2754630D01*
X1637995Y2752394D01*
X1679346Y2711043D01*
X1681530Y2707843D01*
X1682343Y2704033D01*
X1681632Y2700223D01*
X1680514Y2697226D01*
X1677314Y2683967D01*
X1675993Y2670403D01*
X1676450Y2656789D01*
X1678686Y2643327D01*
X1682750Y2630322D01*
X1688490Y2617927D01*
X1695805Y2606446D01*
X1704593Y2596032D01*
X1714754Y2586888D01*
X1725980Y2579166D01*
X1738122Y2573020D01*
X1751025Y2568549D01*
X1764385Y2565806D01*
X1778000Y2564892D01*
X1791614Y2565806D01*
X1804974Y2568549D01*
X1817878Y2573020D01*
X1830019Y2579166D01*
X1841246Y2586888D01*
X1851406Y2596032D01*
X1860194Y2606446D01*
X1867509Y2617927D01*
X1873250Y2630322D01*
X1877314Y2643327D01*
X1879549Y2656789D01*
X1880006Y2670403D01*
X1878685Y2683967D01*
X1875485Y2697226D01*
X1870608Y2709976D01*
X1864055Y2721914D01*
X1855978Y2732887D01*
X1846478Y2742692D01*
X1835759Y2751175D01*
X1824024Y2758135D01*
X1811477Y2763418D01*
X1798320Y2767025D01*
X1784807Y2768854D01*
X1771192Y2768854D01*
X1757680Y2767025D01*
X1743710Y2763164D01*
X1740154Y2762859D01*
X1736699Y2763774D01*
X1733804Y2765806D01*
X1678635Y2820924D01*
X1672437Y2826054D01*
X1665732Y2829610D01*
X1658518Y2831795D01*
X1650492Y2832608D01*
X1604518Y2832608D01*
X1600758Y2833319D01*
X1597507Y2835402D01*
X1595272Y2838500D01*
X1594358Y2842209D01*
X1594866Y2846019D01*
X1596745Y2849321D01*
X1606194Y2860446D01*
X1613509Y2871927D01*
X1619250Y2884322D01*
X1623314Y2897327D01*
X1625549Y2910789D01*
X1626006Y2924403D01*
X1624685Y2937967D01*
X1621485Y2951226D01*
X1616608Y2963976D01*
X1610055Y2975914D01*
X1601978Y2986887D01*
X1592478Y2996692D01*
X1581759Y3005175D01*
X1570024Y3012135D01*
X1557477Y3017418D01*
X1544320Y3021025D01*
X1530807Y3022854D01*
X1517192Y3022854D01*
X1503680Y3021025D01*
X1490522Y3017418D01*
X1477975Y3012135D01*
X1466240Y3005175D01*
X1455521Y2996692D01*
X1446022Y2986887D01*
X1437944Y2975914D01*
X1431391Y2963976D01*
X1426514Y2951226D01*
X1423314Y2937967D01*
X1421993Y2924403D01*
X1422450Y2910789D01*
X1424686Y2897327D01*
X1428750Y2884322D01*
X1434490Y2871927D01*
X1441805Y2860446D01*
X1451254Y2849321D01*
X1453134Y2846019D01*
X1453642Y2842209D01*
X1452727Y2838500D01*
X1450492Y2835402D01*
X1447241Y2833319D01*
X1443482Y2832608D01*
X1244600Y2832608D01*
X1236573Y2831795D01*
X1229360Y2829610D01*
X1222654Y2826054D01*
X1216456Y2820924D01*
X1077518Y2682036D01*
X1074216Y2679801D01*
X1070305Y2679039D01*
X1066444Y2679801D01*
X1063142Y2682036D01*
X1059332Y2685846D01*
X1054404Y2688945D01*
X1048969Y2690825D01*
X1042619Y2691536D01*
X957376Y2691536D01*
X951026Y2690825D01*
X945591Y2688945D01*
X940663Y2685846D01*
X936599Y2681782D01*
X933500Y2676855D01*
X931621Y2671419D01*
X930910Y2665069D01*
X930910Y2585567D01*
X931621Y2579268D01*
X933500Y2573782D01*
X936599Y2568905D01*
X940663Y2564790D01*
X945591Y2561691D01*
X951687Y2559608D01*
X955192Y2557424D01*
X957630Y2554071D01*
X958443Y2550007D01*
X957630Y2545943D01*
X955192Y2542540D01*
X951687Y2540406D01*
X945591Y2538272D01*
X940663Y2535224D01*
X936599Y2531110D01*
X933500Y2526233D01*
X931621Y2520746D01*
X930910Y2514447D01*
X930910Y2434945D01*
X931621Y2428595D01*
X933500Y2423160D01*
X936599Y2418232D01*
X940663Y2414168D01*
X945591Y2411069D01*
X951026Y2409139D01*
X957376Y2408428D01*
X1032865Y2408428D01*
X1036777Y2407666D01*
X1040028Y2405481D01*
X1186484Y2259076D01*
X1192682Y2253945D01*
X1199388Y2250389D01*
X1206601Y2248204D01*
G37*
G36*
X1778000Y786892D02*
G01*
X1791614Y787806D01*
X1804974Y790549D01*
X1817878Y795020D01*
X1830019Y801166D01*
X1841246Y808888D01*
X1851406Y818032D01*
X1860194Y828446D01*
X1867509Y839927D01*
X1873250Y852322D01*
X1877314Y865327D01*
X1879549Y878789D01*
X1880006Y892403D01*
X1878685Y905967D01*
X1875485Y919226D01*
X1870608Y931976D01*
X1864055Y943914D01*
X1855978Y954887D01*
X1846478Y964692D01*
X1835759Y973175D01*
X1824024Y980135D01*
X1811477Y985418D01*
X1798320Y989025D01*
X1784807Y990853D01*
X1771192Y990853D01*
X1757680Y989025D01*
X1743710Y985164D01*
X1740154Y984859D01*
X1736699Y985774D01*
X1733804Y987806D01*
X1619961Y1101598D01*
X1613763Y1106728D01*
X1607058Y1110284D01*
X1599844Y1112469D01*
X1591818Y1113282D01*
X1578203Y1113282D01*
X1574139Y1114145D01*
X1570786Y1116533D01*
X1568653Y1120089D01*
X1566468Y1126236D01*
X1563420Y1131112D01*
X1559306Y1135227D01*
X1554429Y1138275D01*
X1548333Y1140409D01*
X1544777Y1142542D01*
X1542389Y1145946D01*
X1541526Y1150010D01*
X1542389Y1154074D01*
X1544777Y1157427D01*
X1548333Y1159611D01*
X1554429Y1161694D01*
X1559306Y1164793D01*
X1563420Y1168908D01*
X1566468Y1173784D01*
X1568653Y1179931D01*
X1570786Y1183487D01*
X1574139Y1185875D01*
X1578203Y1186738D01*
X1670913Y1186738D01*
X1674469Y1186078D01*
X1677619Y1184198D01*
X1679854Y1181303D01*
X1680972Y1177848D01*
X1680768Y1174191D01*
X1677314Y1159967D01*
X1675993Y1146403D01*
X1676450Y1132789D01*
X1678686Y1119327D01*
X1682750Y1106322D01*
X1688490Y1093927D01*
X1695805Y1082446D01*
X1704593Y1072032D01*
X1714754Y1062888D01*
X1725980Y1055166D01*
X1738122Y1049020D01*
X1751025Y1044549D01*
X1764385Y1041806D01*
X1778000Y1040892D01*
X1791614Y1041806D01*
X1804974Y1044549D01*
X1817878Y1049020D01*
X1830019Y1055166D01*
X1841246Y1062888D01*
X1851406Y1072032D01*
X1860194Y1082446D01*
X1867509Y1093927D01*
X1873250Y1106322D01*
X1877314Y1119327D01*
X1879549Y1132789D01*
X1880006Y1146403D01*
X1878685Y1159967D01*
X1875485Y1173226D01*
X1870608Y1185976D01*
X1864055Y1197914D01*
X1855978Y1208887D01*
X1846478Y1218692D01*
X1835759Y1227175D01*
X1824024Y1234135D01*
X1811477Y1239418D01*
X1798320Y1243025D01*
X1784807Y1244854D01*
X1771192Y1244854D01*
X1757680Y1243025D01*
X1743710Y1239164D01*
X1740154Y1238859D01*
X1736699Y1239774D01*
X1733804Y1241806D01*
X1723288Y1252270D01*
X1717090Y1257401D01*
X1710385Y1260957D01*
X1703171Y1263142D01*
X1695145Y1263954D01*
X1578203Y1263954D01*
X1574139Y1264818D01*
X1570786Y1267206D01*
X1568602Y1270762D01*
X1566468Y1276858D01*
X1563420Y1281785D01*
X1559306Y1285849D01*
X1554429Y1288948D01*
X1548942Y1290828D01*
X1542643Y1291539D01*
X1457350Y1291539D01*
X1451051Y1290828D01*
X1445564Y1288948D01*
X1440688Y1285849D01*
X1436573Y1281785D01*
X1433525Y1276858D01*
X1431594Y1271422D01*
X1430883Y1265072D01*
X1430883Y1185570D01*
X1431594Y1179271D01*
X1433525Y1173784D01*
X1436573Y1168908D01*
X1440688Y1164793D01*
X1445564Y1161694D01*
X1451660Y1159611D01*
X1455216Y1157427D01*
X1457604Y1154074D01*
X1458468Y1150010D01*
X1457604Y1145946D01*
X1455216Y1142542D01*
X1451660Y1140409D01*
X1445564Y1138275D01*
X1440688Y1135227D01*
X1436573Y1131112D01*
X1433525Y1126236D01*
X1431594Y1120749D01*
X1430883Y1114450D01*
X1430883Y1034948D01*
X1431594Y1028598D01*
X1433525Y1023162D01*
X1436573Y1018235D01*
X1440688Y1014171D01*
X1445564Y1011072D01*
X1451051Y1009142D01*
X1457350Y1008430D01*
X1542643Y1008430D01*
X1548942Y1009142D01*
X1554429Y1011072D01*
X1559306Y1014171D01*
X1563420Y1018235D01*
X1566468Y1023162D01*
X1567027Y1024737D01*
X1569161Y1028242D01*
X1572412Y1030630D01*
X1576425Y1031544D01*
X1580438Y1030833D01*
X1583842Y1028598D01*
X1679346Y933043D01*
X1681530Y929843D01*
X1682343Y926033D01*
X1681632Y922223D01*
X1680514Y919226D01*
X1677314Y905967D01*
X1675993Y892403D01*
X1676450Y878789D01*
X1678686Y865327D01*
X1682750Y852322D01*
X1688490Y839927D01*
X1695805Y828446D01*
X1704593Y818032D01*
X1714754Y808888D01*
X1725980Y801166D01*
X1738122Y795020D01*
X1751025Y790549D01*
X1764385Y787806D01*
G37*
G36*
X254000Y2056892D02*
G01*
X267614Y2057806D01*
X280974Y2060549D01*
X293878Y2065020D01*
X306019Y2071166D01*
X317246Y2078888D01*
X327406Y2088032D01*
X336194Y2098446D01*
X343509Y2109927D01*
X349250Y2122322D01*
X353314Y2135327D01*
X355549Y2148789D01*
X356006Y2162403D01*
X354787Y2174849D01*
X355244Y2179066D01*
X357327Y2182723D01*
X360781Y2185162D01*
X364896Y2186025D01*
X471779Y2186025D01*
X475843Y2185212D01*
X479247Y2182825D01*
X481380Y2179269D01*
X483514Y2173122D01*
X486613Y2168245D01*
X490677Y2164130D01*
X495604Y2161082D01*
X501040Y2159152D01*
X507390Y2158441D01*
X592632Y2158441D01*
X598932Y2159152D01*
X604418Y2161082D01*
X609295Y2164130D01*
X613410Y2168245D01*
X616508Y2173122D01*
X618388Y2178608D01*
X619099Y2184908D01*
X619099Y2264410D01*
X618388Y2270760D01*
X616508Y2276195D01*
X613410Y2281123D01*
X609295Y2285187D01*
X604418Y2288286D01*
X598322Y2290419D01*
X594766Y2292553D01*
X592378Y2295956D01*
X591515Y2300020D01*
X592378Y2304084D01*
X594766Y2307437D01*
X598322Y2309571D01*
X604418Y2311704D01*
X609295Y2314803D01*
X613410Y2318867D01*
X616508Y2323795D01*
X618388Y2329230D01*
X619099Y2335580D01*
X619099Y2415082D01*
X618388Y2421382D01*
X616508Y2426868D01*
X613410Y2431745D01*
X609295Y2435860D01*
X604418Y2438908D01*
X598932Y2440838D01*
X592632Y2441549D01*
X507390Y2441549D01*
X501040Y2440838D01*
X495604Y2438908D01*
X490677Y2435860D01*
X486613Y2431745D01*
X483514Y2426868D01*
X481380Y2420721D01*
X479247Y2417165D01*
X475843Y2414778D01*
X471779Y2413914D01*
X365455Y2413914D01*
X361797Y2414625D01*
X358648Y2416556D01*
X356412Y2419502D01*
X355346Y2423058D01*
X354685Y2429967D01*
X351485Y2443226D01*
X346608Y2455976D01*
X340055Y2467914D01*
X331978Y2478887D01*
X322478Y2488692D01*
X311759Y2497175D01*
X300024Y2504135D01*
X287477Y2509418D01*
X274320Y2513025D01*
X260807Y2514854D01*
X247192Y2514854D01*
X233679Y2513025D01*
X220522Y2509418D01*
X207975Y2504135D01*
X196240Y2497175D01*
X185521Y2488692D01*
X176022Y2478887D01*
X167944Y2467914D01*
X161391Y2455976D01*
X156514Y2443226D01*
X153314Y2429967D01*
X151993Y2416403D01*
X152450Y2402789D01*
X154686Y2389327D01*
X158750Y2376322D01*
X164490Y2363927D01*
X171805Y2352446D01*
X180594Y2342032D01*
X190754Y2332888D01*
X201980Y2325166D01*
X214121Y2319020D01*
X227025Y2314549D01*
X240385Y2311806D01*
X254000Y2310892D01*
X267614Y2311806D01*
X280974Y2314549D01*
X293878Y2319020D01*
X306019Y2325166D01*
X321767Y2336038D01*
X325424Y2336698D01*
X471779Y2336698D01*
X475843Y2335885D01*
X479247Y2333498D01*
X481380Y2329942D01*
X483514Y2323795D01*
X486613Y2318867D01*
X490677Y2314803D01*
X495604Y2311704D01*
X501650Y2309571D01*
X505206Y2307437D01*
X507593Y2304084D01*
X508457Y2300020D01*
X507593Y2295956D01*
X505206Y2292553D01*
X501650Y2290419D01*
X495604Y2288286D01*
X490677Y2285187D01*
X486613Y2281123D01*
X483514Y2276195D01*
X481380Y2270048D01*
X479247Y2266492D01*
X475843Y2264105D01*
X471779Y2263241D01*
X320141Y2263241D01*
X312115Y2262479D01*
X304901Y2260295D01*
X297332Y2256231D01*
X293471Y2255062D01*
X288137Y2255266D01*
X274320Y2259025D01*
X260807Y2260854D01*
X247192Y2260854D01*
X233679Y2259025D01*
X220522Y2255418D01*
X207975Y2250135D01*
X196240Y2243175D01*
X185521Y2234692D01*
X176022Y2224887D01*
X167944Y2213914D01*
X161391Y2201976D01*
X156514Y2189226D01*
X153314Y2175967D01*
X151993Y2162403D01*
X152450Y2148789D01*
X154686Y2135327D01*
X158750Y2122322D01*
X164490Y2109927D01*
X171805Y2098446D01*
X180594Y2088032D01*
X190754Y2078888D01*
X201980Y2071166D01*
X214121Y2065020D01*
X227025Y2060549D01*
X240385Y2057806D01*
G37*
G36*
X1457350Y1758442D02*
G01*
X1542643Y1758442D01*
X1548942Y1759153D01*
X1554429Y1761083D01*
X1559306Y1764131D01*
X1563420Y1768246D01*
X1566468Y1773123D01*
X1568602Y1779270D01*
X1570786Y1782825D01*
X1574139Y1785213D01*
X1578203Y1786026D01*
X1697177Y1786026D01*
X1705203Y1786839D01*
X1712417Y1789023D01*
X1719072Y1792579D01*
X1725320Y1797710D01*
X1734007Y1806397D01*
X1737106Y1808530D01*
X1740763Y1809343D01*
X1744522Y1808784D01*
X1751025Y1806549D01*
X1764385Y1803806D01*
X1778000Y1802892D01*
X1791614Y1803806D01*
X1804974Y1806549D01*
X1817878Y1811020D01*
X1830019Y1817166D01*
X1841246Y1824888D01*
X1851406Y1834032D01*
X1860194Y1844446D01*
X1867509Y1855927D01*
X1873250Y1868322D01*
X1877314Y1881327D01*
X1879549Y1894789D01*
X1880006Y1908403D01*
X1878685Y1921967D01*
X1875485Y1935225D01*
X1870608Y1947976D01*
X1864055Y1959914D01*
X1855978Y1970887D01*
X1846478Y1980692D01*
X1835759Y1989175D01*
X1824024Y1996135D01*
X1811477Y2001418D01*
X1798320Y2005025D01*
X1784807Y2006854D01*
X1771192Y2006854D01*
X1757680Y2005025D01*
X1744522Y2001418D01*
X1731975Y1996135D01*
X1720240Y1989175D01*
X1709521Y1980692D01*
X1700022Y1970887D01*
X1691944Y1959914D01*
X1685391Y1947976D01*
X1680514Y1935225D01*
X1677314Y1921967D01*
X1675993Y1908403D01*
X1676450Y1894789D01*
X1678686Y1881327D01*
X1680210Y1876450D01*
X1680667Y1872691D01*
X1679651Y1869033D01*
X1677416Y1865985D01*
X1674215Y1863953D01*
X1670507Y1863242D01*
X1578203Y1863242D01*
X1574139Y1864106D01*
X1570786Y1866493D01*
X1568653Y1870049D01*
X1566468Y1876196D01*
X1563420Y1881124D01*
X1559306Y1885188D01*
X1554429Y1888286D01*
X1548333Y1890420D01*
X1544777Y1892554D01*
X1542389Y1895957D01*
X1541526Y1900021D01*
X1542389Y1904085D01*
X1544777Y1907438D01*
X1548333Y1909572D01*
X1554429Y1911705D01*
X1559306Y1914804D01*
X1563420Y1918868D01*
X1566468Y1923796D01*
X1568653Y1929942D01*
X1570786Y1933498D01*
X1574139Y1935886D01*
X1578203Y1936699D01*
X1593850Y1936699D01*
X1601876Y1937512D01*
X1609090Y1939696D01*
X1615744Y1943252D01*
X1621993Y1948383D01*
X1734007Y2060397D01*
X1737106Y2062530D01*
X1740763Y2063343D01*
X1744522Y2062784D01*
X1751025Y2060549D01*
X1764385Y2057806D01*
X1778000Y2056892D01*
X1791614Y2057806D01*
X1804974Y2060549D01*
X1817878Y2065020D01*
X1830019Y2071166D01*
X1841246Y2078888D01*
X1851406Y2088032D01*
X1860194Y2098446D01*
X1867509Y2109927D01*
X1873250Y2122322D01*
X1877314Y2135327D01*
X1879549Y2148789D01*
X1880006Y2162403D01*
X1878685Y2175967D01*
X1875485Y2189226D01*
X1870608Y2201976D01*
X1864055Y2213914D01*
X1855978Y2224887D01*
X1846478Y2234692D01*
X1835759Y2243175D01*
X1824024Y2250135D01*
X1811477Y2255418D01*
X1798320Y2259025D01*
X1784807Y2260854D01*
X1771192Y2260854D01*
X1757680Y2259025D01*
X1744522Y2255418D01*
X1731975Y2250135D01*
X1720240Y2243175D01*
X1709521Y2234692D01*
X1700022Y2224887D01*
X1691944Y2213914D01*
X1685391Y2201976D01*
X1680514Y2189226D01*
X1677314Y2175967D01*
X1675993Y2162403D01*
X1676450Y2148789D01*
X1678686Y2135327D01*
X1681835Y2125116D01*
X1682292Y2121509D01*
X1681429Y2117953D01*
X1679346Y2114956D01*
X1584350Y2019960D01*
X1580946Y2017674D01*
X1576933Y2016963D01*
X1572971Y2017877D01*
X1569669Y2020265D01*
X1567586Y2023770D01*
X1566468Y2026869D01*
X1563420Y2031746D01*
X1559306Y2035860D01*
X1554429Y2038908D01*
X1548942Y2040839D01*
X1542643Y2041550D01*
X1457350Y2041550D01*
X1451051Y2040839D01*
X1445564Y2038908D01*
X1440688Y2035860D01*
X1436573Y2031746D01*
X1433525Y2026869D01*
X1431594Y2021382D01*
X1430883Y2015083D01*
X1430883Y1935581D01*
X1431594Y1929231D01*
X1433525Y1923796D01*
X1436573Y1918868D01*
X1440688Y1914804D01*
X1445564Y1911705D01*
X1451660Y1909572D01*
X1455216Y1907438D01*
X1457604Y1904085D01*
X1458468Y1900021D01*
X1457604Y1895957D01*
X1455216Y1892554D01*
X1451660Y1890420D01*
X1445564Y1888286D01*
X1440688Y1885188D01*
X1436573Y1881124D01*
X1433525Y1876196D01*
X1431594Y1870760D01*
X1430883Y1864410D01*
X1430883Y1784908D01*
X1431594Y1778609D01*
X1433525Y1773123D01*
X1436573Y1768246D01*
X1440688Y1764131D01*
X1445564Y1761083D01*
X1451051Y1759153D01*
G37*
G36*
X1351838Y60909D02*
G01*
X1365097Y60909D01*
X1371396Y61620D01*
X1376883Y63500D01*
X1381760Y66598D01*
X1385874Y70662D01*
X1388922Y75590D01*
X1390853Y81026D01*
X1391564Y87376D01*
X1391564Y102057D01*
X1351838Y102057D01*
G37*
G36*
X254000Y1548892D02*
G01*
X267614Y1549806D01*
X280974Y1552549D01*
X293878Y1557020D01*
X306019Y1563166D01*
X317246Y1570888D01*
X327406Y1580032D01*
X336194Y1590446D01*
X343509Y1601927D01*
X349250Y1614322D01*
X353314Y1627327D01*
X355549Y1640789D01*
X356006Y1654403D01*
X354685Y1667967D01*
X353314Y1673555D01*
X353161Y1677162D01*
X354228Y1680667D01*
X356514Y1683512D01*
X359613Y1685391D01*
X363220Y1686052D01*
X471779Y1686052D01*
X475843Y1685188D01*
X479247Y1682800D01*
X481380Y1679244D01*
X483514Y1673148D01*
X486613Y1668221D01*
X490677Y1664157D01*
X495604Y1661058D01*
X501040Y1659178D01*
X507390Y1658467D01*
X592632Y1658467D01*
X598932Y1659178D01*
X604418Y1661058D01*
X609295Y1664157D01*
X613410Y1668221D01*
X616508Y1673148D01*
X618388Y1678584D01*
X619099Y1684934D01*
X619099Y1764436D01*
X618388Y1770735D01*
X616508Y1776222D01*
X613410Y1781098D01*
X609295Y1785213D01*
X604418Y1788261D01*
X598322Y1790395D01*
X594766Y1792528D01*
X592378Y1795932D01*
X591515Y1799996D01*
X592378Y1804060D01*
X594766Y1807464D01*
X598322Y1809597D01*
X604418Y1811731D01*
X609295Y1814779D01*
X613410Y1818893D01*
X616508Y1823770D01*
X618388Y1829257D01*
X619099Y1835556D01*
X619099Y1915058D01*
X618388Y1921408D01*
X616508Y1926843D01*
X613410Y1931771D01*
X609295Y1935835D01*
X604418Y1938934D01*
X598932Y1940864D01*
X592632Y1941575D01*
X507390Y1941575D01*
X501040Y1940864D01*
X495604Y1938934D01*
X490677Y1935835D01*
X486613Y1931771D01*
X483514Y1926843D01*
X481380Y1920748D01*
X479247Y1917192D01*
X475843Y1914804D01*
X471779Y1913940D01*
X364591Y1913940D01*
X360222Y1914956D01*
X356717Y1917700D01*
X354736Y1921764D01*
X351485Y1935225D01*
X346608Y1947976D01*
X340055Y1959914D01*
X331978Y1970887D01*
X322478Y1980692D01*
X311759Y1989175D01*
X300024Y1996135D01*
X287477Y2001418D01*
X274320Y2005025D01*
X260807Y2006854D01*
X247192Y2006854D01*
X233679Y2005025D01*
X220522Y2001418D01*
X207975Y1996135D01*
X196240Y1989175D01*
X185521Y1980692D01*
X176022Y1970887D01*
X167944Y1959914D01*
X161391Y1947976D01*
X156514Y1935225D01*
X153314Y1921967D01*
X151993Y1908403D01*
X152450Y1894789D01*
X154686Y1881327D01*
X158750Y1868322D01*
X164490Y1855927D01*
X171805Y1844446D01*
X180594Y1834032D01*
X190754Y1824888D01*
X201980Y1817166D01*
X214121Y1811020D01*
X227025Y1806549D01*
X240385Y1803806D01*
X254000Y1802892D01*
X267614Y1803806D01*
X280974Y1806549D01*
X293878Y1811020D01*
X306019Y1817166D01*
X317246Y1824888D01*
X327456Y1834083D01*
X330606Y1836064D01*
X334264Y1836724D01*
X471779Y1836724D01*
X475843Y1835861D01*
X479247Y1833473D01*
X481380Y1829917D01*
X483514Y1823770D01*
X486613Y1818893D01*
X490677Y1814779D01*
X495604Y1811731D01*
X501650Y1809597D01*
X505206Y1807464D01*
X507593Y1804060D01*
X508457Y1799996D01*
X507593Y1795932D01*
X505206Y1792528D01*
X501650Y1790395D01*
X495604Y1788261D01*
X490677Y1785213D01*
X486613Y1781098D01*
X483514Y1776222D01*
X481380Y1770075D01*
X479247Y1766519D01*
X475843Y1764131D01*
X471779Y1763268D01*
X328168Y1763268D01*
X320141Y1762455D01*
X312928Y1760270D01*
X306222Y1756714D01*
X300024Y1751584D01*
X298196Y1749806D01*
X295300Y1747774D01*
X291846Y1746859D01*
X288290Y1747164D01*
X274320Y1751025D01*
X260807Y1752854D01*
X247192Y1752854D01*
X233679Y1751025D01*
X220522Y1747418D01*
X207975Y1742135D01*
X196240Y1735175D01*
X185521Y1726692D01*
X176022Y1716887D01*
X167944Y1705914D01*
X161391Y1693976D01*
X156514Y1681225D01*
X153314Y1667967D01*
X151993Y1654403D01*
X152450Y1640789D01*
X154686Y1627327D01*
X158750Y1614322D01*
X164490Y1601927D01*
X171805Y1590446D01*
X180594Y1580032D01*
X190754Y1570888D01*
X201980Y1563166D01*
X214121Y1557020D01*
X227025Y1552549D01*
X240385Y1549806D01*
G37*
G36*
X1778000Y1294892D02*
G01*
X1791614Y1295806D01*
X1804974Y1298549D01*
X1817878Y1303020D01*
X1830019Y1309166D01*
X1841246Y1316888D01*
X1851406Y1326032D01*
X1860194Y1336446D01*
X1867509Y1347927D01*
X1873250Y1360322D01*
X1877314Y1373327D01*
X1879549Y1386789D01*
X1880006Y1400403D01*
X1878685Y1413967D01*
X1875485Y1427226D01*
X1870608Y1439976D01*
X1864055Y1451914D01*
X1855978Y1462887D01*
X1846478Y1472692D01*
X1835759Y1481175D01*
X1824024Y1488135D01*
X1811477Y1493418D01*
X1798320Y1497025D01*
X1784807Y1498854D01*
X1771192Y1498854D01*
X1757680Y1497025D01*
X1744522Y1493418D01*
X1731975Y1488135D01*
X1720240Y1481175D01*
X1709521Y1472692D01*
X1703374Y1466342D01*
X1700072Y1464056D01*
X1696059Y1463243D01*
X1578203Y1463243D01*
X1574139Y1464106D01*
X1570786Y1466494D01*
X1568653Y1470050D01*
X1566468Y1476197D01*
X1563420Y1481124D01*
X1559306Y1485188D01*
X1554429Y1488287D01*
X1548333Y1490421D01*
X1544777Y1492554D01*
X1542389Y1495958D01*
X1541526Y1500022D01*
X1542389Y1504086D01*
X1544777Y1507439D01*
X1548333Y1509572D01*
X1554429Y1511706D01*
X1559306Y1514805D01*
X1563420Y1518869D01*
X1566468Y1523796D01*
X1568653Y1529943D01*
X1570786Y1533499D01*
X1574139Y1535887D01*
X1578203Y1536700D01*
X1701850Y1536700D01*
X1709877Y1537512D01*
X1717090Y1539697D01*
X1723745Y1543253D01*
X1729993Y1548384D01*
X1734007Y1552397D01*
X1737106Y1554530D01*
X1740763Y1555343D01*
X1744522Y1554784D01*
X1751025Y1552549D01*
X1764385Y1549806D01*
X1778000Y1548892D01*
X1791614Y1549806D01*
X1804974Y1552549D01*
X1817878Y1557020D01*
X1830019Y1563166D01*
X1841246Y1570888D01*
X1851406Y1580032D01*
X1860194Y1590446D01*
X1867509Y1601927D01*
X1873250Y1614322D01*
X1877314Y1627327D01*
X1879549Y1640789D01*
X1880006Y1654403D01*
X1878685Y1667967D01*
X1875485Y1681225D01*
X1870608Y1693976D01*
X1864055Y1705914D01*
X1855978Y1716887D01*
X1846478Y1726692D01*
X1835759Y1735175D01*
X1824024Y1742135D01*
X1811477Y1747418D01*
X1798320Y1751025D01*
X1784807Y1752854D01*
X1771192Y1752854D01*
X1757680Y1751025D01*
X1744522Y1747418D01*
X1731975Y1742135D01*
X1720240Y1735175D01*
X1709521Y1726692D01*
X1700022Y1716887D01*
X1691944Y1705914D01*
X1685391Y1693976D01*
X1680514Y1681225D01*
X1677314Y1667967D01*
X1675993Y1654403D01*
X1676450Y1640789D01*
X1678787Y1627124D01*
X1679193Y1623364D01*
X1678228Y1619707D01*
X1675993Y1616659D01*
X1672793Y1614627D01*
X1669084Y1613916D01*
X1578203Y1613916D01*
X1574139Y1614779D01*
X1570786Y1617167D01*
X1568602Y1620723D01*
X1566468Y1626870D01*
X1563420Y1631746D01*
X1559306Y1635861D01*
X1554429Y1638909D01*
X1548942Y1640839D01*
X1542643Y1641551D01*
X1457350Y1641551D01*
X1451051Y1640839D01*
X1445564Y1638909D01*
X1440688Y1635861D01*
X1436573Y1631746D01*
X1433525Y1626870D01*
X1431594Y1621383D01*
X1430883Y1615084D01*
X1430883Y1535582D01*
X1431594Y1529232D01*
X1433525Y1523796D01*
X1436573Y1518869D01*
X1440688Y1514805D01*
X1445564Y1511706D01*
X1451660Y1509572D01*
X1455216Y1507439D01*
X1457604Y1504086D01*
X1458468Y1500022D01*
X1457604Y1495958D01*
X1455216Y1492554D01*
X1451660Y1490421D01*
X1445564Y1488287D01*
X1440688Y1485188D01*
X1436573Y1481124D01*
X1433525Y1476197D01*
X1431594Y1470761D01*
X1430883Y1464411D01*
X1430883Y1384909D01*
X1431594Y1378610D01*
X1433525Y1373124D01*
X1436573Y1368247D01*
X1440688Y1364132D01*
X1445564Y1361084D01*
X1451051Y1359154D01*
X1457350Y1358442D01*
X1542643Y1358442D01*
X1548942Y1359154D01*
X1554429Y1361084D01*
X1559306Y1364132D01*
X1563420Y1368247D01*
X1566468Y1373124D01*
X1568602Y1379270D01*
X1570786Y1382826D01*
X1574139Y1385214D01*
X1578203Y1386027D01*
X1667967Y1386027D01*
X1671472Y1385417D01*
X1674520Y1383639D01*
X1676806Y1380947D01*
X1677974Y1377594D01*
X1678686Y1373327D01*
X1682750Y1360322D01*
X1688490Y1347927D01*
X1695805Y1336446D01*
X1704593Y1326032D01*
X1714754Y1316888D01*
X1725980Y1309166D01*
X1738122Y1303020D01*
X1751025Y1298549D01*
X1764385Y1295806D01*
G37*
G36*
X254000Y1040892D02*
G01*
X267614Y1041806D01*
X280974Y1044549D01*
X293878Y1049020D01*
X306019Y1055166D01*
X317246Y1062888D01*
X327406Y1072032D01*
X336194Y1082446D01*
X343509Y1093927D01*
X349250Y1106322D01*
X353314Y1119327D01*
X355549Y1132789D01*
X356006Y1146403D01*
X354685Y1159967D01*
X351434Y1173530D01*
X351231Y1177188D01*
X352348Y1180642D01*
X354584Y1183538D01*
X357733Y1185418D01*
X361340Y1186027D01*
X471779Y1186027D01*
X475843Y1185214D01*
X479247Y1182827D01*
X481380Y1179271D01*
X483514Y1173124D01*
X486613Y1168247D01*
X490677Y1164132D01*
X495604Y1161084D01*
X501040Y1159154D01*
X507390Y1158443D01*
X592632Y1158443D01*
X598932Y1159154D01*
X604418Y1161084D01*
X609295Y1164132D01*
X613410Y1168247D01*
X616508Y1173124D01*
X618388Y1178610D01*
X619099Y1184910D01*
X619099Y1264412D01*
X618388Y1270762D01*
X616508Y1276197D01*
X613410Y1281125D01*
X609295Y1285189D01*
X604418Y1288288D01*
X598322Y1290421D01*
X594766Y1292555D01*
X592378Y1295958D01*
X591515Y1300022D01*
X592378Y1304086D01*
X594766Y1307439D01*
X598322Y1309573D01*
X604418Y1311706D01*
X609295Y1314805D01*
X613410Y1318869D01*
X616508Y1323797D01*
X618388Y1329232D01*
X619099Y1335582D01*
X619099Y1415084D01*
X618388Y1421384D01*
X616508Y1426870D01*
X613410Y1431747D01*
X609295Y1435862D01*
X604418Y1438910D01*
X598932Y1440840D01*
X592632Y1441551D01*
X507390Y1441551D01*
X501040Y1440840D01*
X495604Y1438910D01*
X490677Y1435862D01*
X486613Y1431747D01*
X483514Y1426870D01*
X481380Y1420723D01*
X479247Y1417167D01*
X475843Y1414780D01*
X471779Y1413916D01*
X362712Y1413916D01*
X358292Y1414932D01*
X354787Y1417726D01*
X352806Y1421739D01*
X351485Y1427226D01*
X346608Y1439976D01*
X340055Y1451914D01*
X331978Y1462887D01*
X322478Y1472692D01*
X311759Y1481175D01*
X300024Y1488135D01*
X287477Y1493418D01*
X274320Y1497025D01*
X260807Y1498854D01*
X247192Y1498854D01*
X233679Y1497025D01*
X220522Y1493418D01*
X207975Y1488135D01*
X196240Y1481175D01*
X185521Y1472692D01*
X176022Y1462887D01*
X167944Y1451914D01*
X161391Y1439976D01*
X156514Y1427226D01*
X153314Y1413967D01*
X151993Y1400403D01*
X152450Y1386789D01*
X154686Y1373327D01*
X158750Y1360322D01*
X164490Y1347927D01*
X171805Y1336446D01*
X180594Y1326032D01*
X190754Y1316888D01*
X201980Y1309166D01*
X214121Y1303020D01*
X227025Y1298549D01*
X240385Y1295806D01*
X254000Y1294892D01*
X267614Y1295806D01*
X280974Y1298549D01*
X293878Y1303020D01*
X306019Y1309166D01*
X317246Y1316888D01*
X327406Y1326032D01*
X333400Y1333144D01*
X336854Y1335786D01*
X341122Y1336700D01*
X471779Y1336700D01*
X475843Y1335887D01*
X479247Y1333500D01*
X481380Y1329944D01*
X483514Y1323797D01*
X486613Y1318869D01*
X490677Y1314805D01*
X495604Y1311706D01*
X501650Y1309573D01*
X505206Y1307439D01*
X507593Y1304086D01*
X508457Y1300022D01*
X507593Y1295958D01*
X505206Y1292555D01*
X501650Y1290421D01*
X495604Y1288288D01*
X490677Y1285189D01*
X486613Y1281125D01*
X483514Y1276197D01*
X481380Y1270050D01*
X479247Y1266494D01*
X475843Y1264107D01*
X471779Y1263243D01*
X336143Y1263243D01*
X328117Y1262481D01*
X320903Y1260297D01*
X314248Y1256741D01*
X308000Y1251610D01*
X298196Y1241806D01*
X295300Y1239774D01*
X291846Y1238859D01*
X288290Y1239164D01*
X274320Y1243025D01*
X260807Y1244854D01*
X247192Y1244854D01*
X233679Y1243025D01*
X220522Y1239418D01*
X207975Y1234135D01*
X196240Y1227175D01*
X185521Y1218692D01*
X176022Y1208887D01*
X167944Y1197914D01*
X161391Y1185976D01*
X156514Y1173226D01*
X153314Y1159967D01*
X151993Y1146403D01*
X152450Y1132789D01*
X154686Y1119327D01*
X158750Y1106322D01*
X164490Y1093927D01*
X171805Y1082446D01*
X180594Y1072032D01*
X190754Y1062888D01*
X201980Y1055166D01*
X214121Y1049020D01*
X227025Y1044549D01*
X240385Y1041806D01*
G37*

%LPD*%
D11*
X1778000Y4318000D02*
G01*
X1778000Y3950462D01*
X1778000Y3683000D01*
D10*
X1778000Y2921000D02*
G01*
X1598929Y3100070D01*
X999997Y3100070D01*
X849884Y2949955D01*
X849884Y2198115D01*
X1016000Y2032000D01*
X1778000Y2413000D02*
G01*
X1651000Y2286000D01*
X1214120Y2286000D01*
X1025397Y2474721D01*
X999997Y2474721D01*
X1778000Y2667000D02*
G01*
X1651000Y2794000D01*
X1244092Y2794000D01*
X1075436Y2625344D01*
X999997Y2625344D01*
X508000Y381000D02*
G01*
X666663Y222336D01*
X666663Y129999D01*
X1174663Y129999D02*
G01*
X1174663Y158663D01*
X1270000Y254000D01*
X1399999Y254000D01*
X1399999Y256999D01*
X1524000Y381000D01*
X817336Y129999D02*
G01*
X1174663Y129999D01*
X254000Y393700D02*
G01*
X560298Y699998D01*
X574675Y699998D01*
X1016000Y2032000D02*
G01*
X1016000Y762000D01*
X953998Y699998D01*
X725347Y699998D01*
X254000Y1397000D02*
G01*
X275666Y1375333D01*
X550011Y1375333D01*
X254000Y1143000D02*
G01*
X335661Y1224661D01*
X550011Y1224661D01*
X254000Y889000D02*
G01*
X390347Y1025347D01*
X550011Y1025347D01*
X254000Y635000D02*
G01*
X493674Y874674D01*
X550011Y874674D01*
X1778000Y381000D02*
G01*
X1499996Y659003D01*
X1499996Y674674D01*
X1778000Y635000D02*
G01*
X1587652Y825347D01*
X1499996Y825347D01*
X1778000Y889000D02*
G01*
X1592326Y1074673D01*
X1499996Y1074673D01*
X1778000Y1143000D02*
G01*
X1695653Y1225346D01*
X1499996Y1225346D01*
X1778000Y1397000D02*
G01*
X1750339Y1424660D01*
X1499996Y1424660D01*
X1778000Y1651000D02*
G01*
X1702333Y1575333D01*
X1499996Y1575333D01*
X1778000Y1905000D02*
G01*
X1697659Y1824659D01*
X1499996Y1824659D01*
X1778000Y2159000D02*
G01*
X1594332Y1975332D01*
X1499996Y1975332D01*
X254000Y3429000D02*
G01*
X307670Y3375329D01*
X550011Y3375329D01*
X254000Y3175000D02*
G01*
X303656Y3224656D01*
X550011Y3224656D01*
X254000Y2921000D02*
G01*
X299669Y2875330D01*
X550011Y2875330D01*
X254000Y2667000D02*
G01*
X311657Y2724657D01*
X550011Y2724657D01*
X254000Y2413000D02*
G01*
X291668Y2375331D01*
X550011Y2375331D01*
X254000Y2159000D02*
G01*
X319659Y2224659D01*
X550011Y2224659D01*
X254000Y1651000D02*
G01*
X327660Y1724660D01*
X550011Y1724660D01*
X254000Y1905000D02*
G01*
X283667Y1875332D01*
X550011Y1875332D01*
X1524000Y2667000D02*
G01*
X1482344Y2625344D01*
X1250010Y2625344D01*
X1524000Y2413000D02*
G01*
X1462328Y2474671D01*
X1250010Y2474671D01*
G36*
X593199Y3335002D02*
G01*
X506798Y3335002D01*
X506798Y3415649D01*
X593199Y3415649D01*
G37*
D13*
G01*
X549998Y3224664D03*
G36*
X593199Y2835000D02*
G01*
X506798Y2835000D01*
X506798Y2915648D01*
X593199Y2915648D01*
G37*
G01*
X549998Y2724663D03*
G36*
X593199Y2335001D02*
G01*
X506798Y2335001D01*
X506798Y2415649D01*
X593199Y2415649D01*
G37*
G01*
X549998Y2224664D03*
G36*
X593199Y1835000D02*
G01*
X506798Y1835000D01*
X506798Y1915647D01*
X593199Y1915647D01*
G37*
G01*
X549998Y1724662D03*
G36*
X593199Y1335001D02*
G01*
X506798Y1335001D01*
X506798Y1415648D01*
X593199Y1415648D01*
G37*
G01*
X549998Y1224663D03*
G36*
X593199Y985001D02*
G01*
X506798Y985001D01*
X506798Y1065649D01*
X593199Y1065649D01*
G37*
G01*
X549998Y874664D03*
G36*
X615000Y743201D02*
G01*
X615000Y656800D01*
X534352Y656800D01*
X534352Y743201D01*
G37*
G36*
X685002Y743201D02*
G01*
X685002Y656800D01*
X765649Y656800D01*
X765649Y743201D01*
G37*
G36*
X1543199Y785002D02*
G01*
X1456799Y785002D01*
X1456799Y865649D01*
X1543199Y865649D01*
G37*
G01*
X1499999Y674664D03*
G36*
X1543199Y1185001D02*
G01*
X1456799Y1185001D01*
X1456799Y1265648D01*
X1543199Y1265648D01*
G37*
G01*
X1499999Y1074663D03*
G36*
X1543199Y1535000D02*
G01*
X1456799Y1535000D01*
X1456799Y1615648D01*
X1543199Y1615648D01*
G37*
G01*
X1499999Y1424663D03*
G36*
X1543199Y1935002D02*
G01*
X1456799Y1935002D01*
X1456799Y2015650D01*
X1543199Y2015650D01*
G37*
G01*
X1499999Y1824664D03*
G36*
X1043200Y2585001D02*
G01*
X956800Y2585001D01*
X956800Y2665648D01*
X1043200Y2665648D01*
G37*
G01*
X1000000Y2474663D03*
G36*
X1293200Y2585001D02*
G01*
X1206799Y2585001D01*
X1206799Y2665648D01*
X1293200Y2665648D01*
G37*
G01*
X1250000Y2474663D03*
G36*
X777001Y86799D02*
G01*
X777001Y173200D01*
X857648Y173200D01*
X857648Y86799D01*
G37*
G36*
X706998Y86799D02*
G01*
X706998Y173200D01*
X626351Y173200D01*
X626351Y86799D01*
G37*
G36*
X1285001Y86799D02*
G01*
X1285001Y173200D01*
X1365648Y173200D01*
X1365648Y86799D01*
G37*
G36*
X1214998Y86799D02*
G01*
X1214998Y173200D01*
X1134351Y173200D01*
X1134351Y86799D01*
G37*
D15*
G01*
X1778000Y3683000D03*
G01*
X1778000Y3429000D03*
G01*
X1778000Y3175000D03*
G01*
X1778000Y2921000D03*
G01*
X1778000Y2667000D03*
G01*
X1778000Y2413000D03*
G01*
X1778000Y2159000D03*
G01*
X1778000Y1905000D03*
G01*
X1778000Y1651000D03*
G01*
X1778000Y1397000D03*
G01*
X1778000Y1143000D03*
G01*
X1778000Y889000D03*
G01*
X1778000Y635000D03*
G01*
X1778000Y381000D03*
G01*
X1524000Y3429000D03*
G01*
X1524000Y2921000D03*
G01*
X1524000Y2667000D03*
G01*
X1524000Y2413000D03*
G01*
X1524000Y381000D03*
G01*
X1270000Y381000D03*
G01*
X1016000Y381000D03*
G01*
X762000Y381000D03*
G01*
X508000Y381000D03*
G01*
X254000Y393700D03*
G01*
X254000Y635000D03*
G01*
X254000Y889000D03*
G01*
X254000Y1143000D03*
G01*
X254000Y1397000D03*
G01*
X254000Y1651000D03*
G01*
X254000Y1905000D03*
G01*
X254000Y2159000D03*
G01*
X254000Y2413000D03*
G01*
X254000Y2667000D03*
G01*
X254000Y2921000D03*
G01*
X254000Y3175000D03*
G01*
X254000Y3429000D03*
G01*
X254000Y3683000D03*
D16*
G01*
X254000Y4318000D03*
G01*
X1778000Y4318000D03*
D12*
G01*
X1150000Y2100000D03*
G01*
X1150000Y1749999D03*
G01*
X1150000Y1399999D03*
G01*
X1150000Y1000000D03*
G01*
X1150000Y650001D03*
G01*
X900000Y1000000D03*
G01*
X900000Y1399999D03*
G01*
X900000Y1749999D03*
G01*
X700001Y2549999D03*
G01*
X1649999Y2549999D03*
M02*
